SplineFontDB: 3.0
FontName: Khaanaa-Black
FullName: Khaanaa Black
FamilyName: Khaanaa
Weight: Black
Copyright: Copyright 2024 The Khaanaa Font Authors
UComments: "2024-7-22: Created with FontForge (http://fontforge.org)"
Version: 0.001
ItalicAngle: 0
UnderlinePosition: -102
UnderlineWidth: 51
Ascent: 819
Descent: 205
InvalidEm: 0
UFOAscent: 819
UFODescent: -205
LayerCount: 2
Layer: 0 0 "Back" 1
Layer: 1 1 "public.default" 0 "glyphs"
StyleMap: 0x0040
FSType: 0
OS2Version: 0
OS2_WeightWidthSlopeOnly: 0
OS2_UseTypoMetrics: 0
CreationTime: 1732813800
ModificationTime: 1748868939
PfmFamily: 16
TTFWeight: 400
TTFWidth: 5
LineGap: 0
VLineGap: 0
OS2TypoAscent: 839
OS2TypoAOffset: 0
OS2TypoDescent: -210
OS2TypoDOffset: 0
OS2TypoLinegap: 0
OS2WinAscent: 839
OS2WinAOffset: 0
OS2WinDescent: 210
OS2WinDOffset: 0
HheadAscent: 839
HheadAOffset: 0
HheadDescent: -210
HheadDOffset: 0
OS2FamilyClass: 1283
OS2Vendor: 'anir'
MarkAttachClasses: 1
DEI: 91125
LangName: 1033 "" "" "" "" "" "Version 0.001" "" "" "" "" "" "" "" "Copyright 2024, The Khaanaa Font Authors+AAoA-This Font Software is licensed under the SIL Open Font License, Version 1.1.+AAoA-This license is available with a FAQ at:https://openfontlicense.org" "https://openfontlicense.org"
Encoding: UnicodeFull
UnicodeInterp: none
NameList: AGL For New Fonts
DisplaySize: -128
AntiAlias: 1
FitToEm: 0
WinInfo: 58200 10 4
BeginPrivate: 0
EndPrivate
GridOrder2: 1
Grid
-512 296.96 m 1,0,-1
 1536 296.96 l 1025
-512 581.632 m 1,2,-1
 1536 581.632 l 1025
EndSplineSet
BeginChars: 1114112 108

StartChar: A
Encoding: 65 65 0
GlifName: A_
Width: 752
VWidth: 0
GlyphClass: 2
Flags: W
LayerCount: 2
Fore
SplineSet
585 0 m 257,0,-1
 496 228 l 257,1,-1
 496 227 l 257,2,-1
 296 227 l 257,3,-1
 237 0 l 257,4,-1
 85 0 l 257,5,-1
 285 769 l 257,6,-1
 437 769 l 257,7,-1
 737 0 l 257,8,-1
 585 0 l 257,0,-1
442 367 m 257,9,-1
 376 535 l 257,10,-1
 332 367 l 257,11,-1
 442 367 l 257,9,-1
EndSplineSet
EndChar

StartChar: exclam
Encoding: 33 33 1
GlifName: exclam
Width: 252
VWidth: 0
GlyphClass: 2
Flags: W
LayerCount: 2
Fore
SplineSet
85 258 m 257,0,-1
 85 772 l 257,1,-1
 237 772 l 257,2,-1
 237 258 l 257,3,-1
 85 258 l 257,0,-1
85 -2 m 257,4,-1
 85 140 l 257,5,-1
 237 140 l 257,6,-1
 237 -2 l 257,7,-1
 85 -2 l 257,4,-1
EndSplineSet
EndChar

StartChar: quotedbl
Encoding: 34 34 2
GlifName: quotedbl
Width: 452
VWidth: 0
GlyphClass: 2
Flags: W
LayerCount: 2
Fore
SplineSet
285 532 m 261,0,-1
 285 789 l 257,1,-1
 437 789 l 257,2,-1
 437 532 l 257,3,-1
 285 532 l 261,0,-1
85 532 m 257,4,-1
 85 789 l 257,5,-1
 237 789 l 257,6,-1
 237 532 l 257,7,-1
 85 532 l 257,4,-1
EndSplineSet
EndChar

StartChar: quotesingle
Encoding: 39 39 3
GlifName: quotesingle
Width: 252
VWidth: 0
GlyphClass: 2
Flags: W
LayerCount: 2
Fore
SplineSet
85 532 m 261,0,-1
 85 789 l 257,1,-1
 237 789 l 257,2,-1
 237 532 l 257,3,-1
 85 532 l 261,0,-1
EndSplineSet
EndChar

StartChar: u1F64F
Encoding: 128591 128591 4
Width: 1024
Flags: W
LayerCount: 2
Fore
SplineSet
453.450671619 804.459225092 m 2,0,-1
 295.620603981 434.110616888 l 1,1,2
 273.27992777 384.730849026 273.27992777 384.730849026 273.279927857 322.839266883 c 0,3,4
 273.279927857 295.1228536 273.279927857 295.1228536 279.479854885 262.021933209 c 0,5,6
 290.962990424 200.714380138 290.962990424 200.714380138 311.052628048 152.776432249 c 1,7,-1
 311.129882812 152.390625 l 1,8,-1
 121.383643381 -5.36297062052 l 2,9,10
 113.319139529 -12.0470345719 113.319139529 -12.0470345719 113.319140608 -21.4584887518 c 128,-1,11
 113.319141687 -30.8699429316 113.319141687 -30.8699429316 118.859365998 -37.1857725317 c 2,12,-1
 258.616020538 -196.419940797 l 2,13,14
 265.26946747 -203.997070312 265.26946747 -203.997070312 275.345703125 -203.997070312 c 0,15,16
 286.821380026 -203.997070312 286.821380026 -203.997070312 293.475964056 -194.654179307 c 2,17,-1
 491.742663825 83.6086538605 l 2,18,19
 495.866909225 89.4019676504 495.866909225 89.4019676504 495.87265988 96.5184031166 c 2,20,-1
 496.18945323 795.738743222 l 2,21,22
 496 804 496 804 491.079050409 809.978165795 c 0,23,24
 484.305077037 818.207458772 484.305077037 818.207458772 471.807609326 818.207458772 c 128,-1,25
 459.310141616 818.207458772 459.310141616 818.207458772 453.450671619 804.459225092 c 2,0,-1
120.108544119 -3.82257625448 m 2,26,-1
 308.921654356 152.687776936 l 1,27,28
 299.372777941 175.588298647 299.372777941 175.588298647 291.552758078 202.019640238 c 128,-1,29
 283.732738215 228.450981828 283.732738215 228.450981828 277.506333036 261.693266973 c 128,-1,30
 271.279927857 294.935552119 271.279927857 294.935552119 271.279927857 316.320146283 c 128,-1,31
 271.279927857 337.704740448 271.279927857 337.704740448 272.67689168 353.02507352 c 0,32,33
 276.69891077 397.139298501 276.69891077 397.139298501 293.779786643 434.893289362 c 2,34,-1
 451.609875257 805.241946784 l 2,35,36
 457.98814686 820.207458772 457.98814686 820.207458772 472.274435658 820.207458772 c 0,37,38
 485.268761689 820.207458772 485.268761689 820.207458772 492.724210431 811.076017425 c 0,39,40
 498.189454046 804.382181381 498.189454046 804.382181381 498.189454046 795.745223687 c 2,41,-1
 497.872659453 96.516755254 l 2,42,43
 497.866393068 88.7621025554 497.866393068 88.7621025554 493.372570551 82.4499398895 c 2,44,-1
 295.106067194 -195.812617569 l 2,45,46
 287.852070218 -205.99707129 287.852070218 -205.99707129 276.108295678 -205.997070801 c 128,-1,47
 264.364521138 -205.997070312 264.364521138 -205.997070312 257.112495086 -197.738262327 c 2,48,-1
 117.355477752 -38.5036805933 l 2,49,50
 111.319141687 -31.6222859323 111.319141687 -31.6222859323 111.319141687 -21.3648701719 c 128,-1,51
 111.319141687 -11.1074544115 111.319141687 -11.1074544115 120.108544119 -3.82257625448 c 2,26,-1
712.944463173 152.776482143 m 1,52,53
 733.036967279 200.717066044 733.036967279 200.717066044 744.519451068 262.021854219 c 0,54,55
 750.718980138 295.121035843 750.718980138 295.121035843 750.718980138 316.363885995 c 128,-1,56
 750.718980138 337.606736146 750.718980138 337.606736146 749.330037404 352.841060576 c 0,57,58
 745.337951448 396.622187895 745.337951448 396.622187895 728.385278504 434.09055493 c 2,59,-1
 570.545412512 804.45924766 l 2,60,61
 564.691002156 818.208001617 564.691002156 818.208001617 551.72590528 818.208001617 c 0,62,63
 539.676388691 818.208001617 539.676388691 818.208001617 533.740538095 810.936765897 c 128,-1,64
 527.8046875 803.665530176 527.8046875 803.665530176 527.8046875 795.731445312 c 2,65,-1
 528.120455286 96.5121098625 l 2,66,67
 528.126205464 89.3948281485 528.126205464 89.3948281485 532.25056862 83.6017219383 c 2,68,-1
 730.51807604 -194.659897567 l 2,69,70
 737.176129473 -204.002929688 737.176129473 -204.002929688 747.95302903 -204.002929688 c 128,-1,71
 758.729928586 -204.002929688 758.729928586 -204.002929688 765.378058336 -196.426847097 c 2,72,-1
 905.133975141 -37.1914300946 l 2,73,74
 910.680795184 -30.870665513 910.680795184 -30.870665513 910.680795184 -22.7283062752 c 0,75,76
 910.680795184 -12.0404691901 910.680795184 -12.0404691901 902.616769726 -5.36331286546 c 2,77,-1
 713.229643758 151.620422936 l 1,78,-1
 712.944463173 152.776482143 l 1,52,53
728.88817396 -195.818618057 m 2,79,-1
 530.62052513 82.4431999367 l 2,80,81
 526.126721948 88.7549356722 526.126721948 88.7549356722 526.12045542 96.511329707 c 2,82,-1
 525.8046875 795.731445312 l 2,83,84
 525.8046875 804.377715996 525.8046875 804.377715996 531.272070711 811.075093475 c 0,85,86
 538.727691779 820.208001617 538.727691779 820.208001617 552.370578154 820.208001617 c 128,-1,87
 566.013464528 820.208001617 566.013464528 820.208001617 572.386228112 805.241924216 c 2,88,-1
 730.208471496 434.91335132 l 1,89,90
 752.718270893 385.162764583 752.718270893 385.162764583 752.718980138 322.835693853 c 0,91,92
 752.718980138 294.933736491 752.718980138 294.933736491 746.492971674 261.693181829 c 0,93,94
 735.045940713 200.57767571 735.045940713 200.57767571 715.075450276 152.687755804 c 1,95,-1
 903.891042774 -3.82223400954 l 2,96,97
 912.679583677 -11.0993019921 912.679583677 -11.0993019921 912.680189431 -21.361270844 c 128,-1,98
 912.680795184 -31.623239696 912.680795184 -31.623239696 906.637509235 -38.5097417804 c 2,99,-1
 766.881707288 -197.745027903 l 2,100,101
 759.635270642 -206.002929688 759.635270642 -206.002929688 747.890506305 -206.002929688 c 128,-1,102
 736.145741968 -206.002929688 736.145741968 -206.002929688 728.88817396 -195.818618057 c 2,79,-1
308.921654356 152.687776936 m 1,103,-1
 309.492333181 153.160822183 l 1,104,-1
 308.921654356 152.687776936 l 1,103,-1
EndSplineSet
EndChar

StartChar: numbersign
Encoding: 35 35 6
Width: 644
VWidth: 0
Flags: W
LayerCount: 2
Fore
SplineSet
179 692 m 1,0,-1
 331 692 l 1,1,-1
 318 618 l 1,2,-1
 466 618 l 1,3,-1
 479 692 l 1,4,-1
 631 692 l 1,5,-1
 618 618 l 1,6,-1
 629 618 l 1,7,-1
 629 466 l 1,8,-1
 591 466 l 1,9,-1
 574 368 l 1,10,-1
 629 368 l 1,11,-1
 629 216 l 1,12,-1
 547 216 l 1,13,-1
 535 149 l 1,14,-1
 383 149 l 1,15,-1
 395 216 l 1,16,-1
 247 216 l 1,17,-1
 235 149 l 1,18,-1
 83 149 l 1,19,-1
 95 216 l 1,20,-1
 85 216 l 1,21,-1
 85 368 l 1,22,-1
 122 368 l 1,23,-1
 139 466 l 1,24,-1
 85 466 l 1,25,-1
 85 618 l 1,26,-1
 166 618 l 1,27,-1
 179 692 l 1,0,-1
439 466 m 1,28,-1
 291 466 l 1,29,-1
 274 368 l 1,30,-1
 422 368 l 1,31,-1
 439 466 l 1,28,-1
EndSplineSet
EndChar

StartChar: dollar
Encoding: 36 36 7
Width: 512
VWidth: 0
Flags: W
LayerCount: 2
Fore
SplineSet
90 57 m 1,0,-1
 165 182 l 1,1,2
 173 176 173 176 187 167 c 0,3,4
 225 145 225 145 268 155 c 0,5,6
 276 157 276 157 283 160 c 1,7,-1
 283 310 l 1,8,9
 273 314 273 314 262 315 c 0,10,11
 213 342 213 342 177 375 c 128,-1,12
 141 408 141 408 120 449 c 128,-1,13
 99 490 99 490 102 539 c 128,-1,14
 105 588 105 588 136 639 c 0,15,16
 187 723 187 723 283 758 c 1,17,-1
 283 1030 l 1,18,-1
 362 1030 l 1,19,-1
 362 774 l 1,20,21
 433 776 433 776 488 727 c 0,22,23
 491 724 491 724 498.5 719.5 c 128,-1,24
 506 715 506 715 509 712 c 1,25,-1
 434 587 l 1,26,27
 422 597 422 597 412 602 c 0,28,29
 388 615 388 615 362 616 c 1,30,-1
 362 401 l 1,31,32
 391 384 391 384 413 366 c 0,33,34
 446 340 446 340 470.5 304.5 c 128,-1,35
 495 269 495 269 493.5 225 c 128,-1,36
 492 181 492 181 462 130 c 0,37,38
 426 70 426 70 362 32 c 0,39,40
 362 32 l 2,41,-1
 362 -182 l 1,42,-1
 283 -182 l 1,43,-1
 283 0 l 1,44,45
 258 -6 258 -6 232 -6 c 0,46,47
 166 -6 166 -6 111 42 c 0,48,49
 108 45 108 45 100.5 49.5 c 128,-1,50
 93 54 93 54 90 57 c 1,0,-1
283 586 m 1,51,52
 274 577 274 577 267 565 c 0,53,54
 242 524 242 524 262 475 c 0,55,56
 270 456 270 456 283 443 c 1,57,-1
 283 586 l 1,51,52
EndSplineSet
EndChar

StartChar: percent
Encoding: 37 37 8
Width: 691
VWidth: 0
Flags: W
LayerCount: 2
Fore
SplineSet
239 483 m 261,0,-1
 237 483 l 257,1,-1
 230 483 l 257,2,3
 179 487 179 487 144.5 523.5 c 128,-1,4
 110 560 110 560 110 611 c 128,-1,5
 110 662 110 662 145 699 c 128,-1,6
 180 736 180 736 230 740 c 1,7,-1
 237 740 l 257,8,-1
 239 740 l 257,9,-1
 241 740 l 258,10,11
 295 740 295 740 332.5 702.5 c 128,-1,12
 370 665 370 665 370 611 c 0,13,14
 370 558 370 558 332.5 520.5 c 128,-1,15
 295 483 295 483 241 483 c 2,16,-1
 239 483 l 261,0,-1
240 665 m 260,17,18
 236 665 236 665 228 663 c 1,19,-1
 228 664 l 257,20,21
 209 660 209 660 197.5 645.5 c 128,-1,22
 186 631 186 631 186 611 c 0,23,24
 186 592 186 592 197.5 577.5 c 128,-1,25
 209 563 209 563 228 559 c 1,26,-1
 228 560 l 257,27,28
 236 558 236 558 240 558 c 128,-1,29
 244 558 244 558 252 560 c 1,30,-1
 252 559 l 257,31,32
 271 563 271 563 282.5 577.5 c 128,-1,33
 294 592 294 592 294 611 c 0,34,35
 294 631 294 631 282.5 645.5 c 128,-1,36
 271 660 271 660 252 664 c 1,37,-1
 252 663 l 257,38,39
 244 665 244 665 240 665 c 260,17,18
544 82 m 257,40,-1
 542 82 l 257,41,-1
 535 82 l 257,42,43
 484 86 484 86 449.5 122.5 c 128,-1,44
 415 159 415 159 415 210 c 128,-1,45
 415 261 415 261 450 298 c 128,-1,46
 485 335 485 335 535 339 c 1,47,-1
 542 339 l 257,48,-1
 544 339 l 257,49,-1
 546 339 l 258,50,51
 600 339 600 339 637.5 301.5 c 128,-1,52
 675 264 675 264 675 210 c 0,53,54
 675 157 675 157 637.5 119.5 c 128,-1,55
 600 82 600 82 546 82 c 2,56,-1
 544 82 l 257,40,-1
545 264 m 256,57,58
 541 264 541 264 533 262 c 1,59,-1
 533 263 l 257,60,61
 514 259 514 259 502.5 244.5 c 128,-1,62
 491 230 491 230 491 210 c 0,63,64
 491 191 491 191 502.5 176.5 c 128,-1,65
 514 162 514 162 533 158 c 1,66,-1
 533 159 l 257,67,68
 541 157 541 157 545 157 c 128,-1,69
 549 157 549 157 557 159 c 1,70,-1
 557 158 l 257,71,72
 576 162 576 162 587.5 176.5 c 128,-1,73
 599 191 599 191 599 210 c 0,74,75
 599 230 599 230 587.5 244.5 c 128,-1,76
 576 259 576 259 557 263 c 1,77,-1
 557 262 l 257,78,79
 549 264 549 264 545 264 c 256,57,58
570 818 m 257,80,-1
 676 757 l 257,81,-1
 191 -83 l 257,82,-1
 85 -22 l 257,83,-1
 570 818 l 257,80,-1
EndSplineSet
EndChar

StartChar: ampersand
Encoding: 38 38 9
Width: 649
VWidth: 0
Flags: W
LayerCount: 2
Fore
SplineSet
424 810 m 1,0,-1
 421 691 l 1,1,2
 403 690 403 690 338.5 655 c 128,-1,3
 274 620 274 620 259 605 c 0,4,5
 225 571 225 571 228 521 c 1,6,-1
 251 498 l 1,7,8
 298 518 298 518 350 518 c 0,9,10
 363 518 363 518 376 517 c 1,11,-1
 376 373 l 1,12,-1
 487 262 l 1,13,14
 600 354 600 354 604 355 c 1,15,-1
 604 202 l 2,16,17
 601 202 601 202 571 178 c 1,18,-1
 635 114 l 1,19,-1
 517 -4 l 1,20,-1
 441 73 l 1,21,22
 354 3 354 3 350 3 c 0,23,24
 243 3 243 3 167.5 78 c 128,-1,25
 92 153 92 153 92 260 c 0,26,27
 92 330 92 330 127 390 c 1,28,-1
 111 406 l 1,29,30
 91 442 91 442 86 480 c 128,-1,31
 81 518 81 518 91 558.5 c 128,-1,32
 101 599 101 599 114.5 633 c 128,-1,33
 128 667 128 667 152 712 c 0,34,35
 165 736 165 736 225.5 764 c 128,-1,36
 286 792 286 792 347 806 c 128,-1,37
 408 820 408 820 424 810 c 1,0,-1
357 158 m 1,38,-1
 244 272 l 1,39,40
 243 266 243 266 243 260 c 0,41,42
 243 216 243 216 274 185 c 128,-1,43
 305 154 305 154 350 154 c 0,44,45
 351 154 351 154 357 158 c 1,38,-1
EndSplineSet
EndChar

StartChar: parenleft
Encoding: 40 40 10
Width: 555
VWidth: 0
Flags: W
LayerCount: 2
Fore
SplineSet
467 744 m 257,0,1
 367 744 367 744 278 633.5 c 128,-1,2
 189 523 189 523 189 378 c 0,3,4
 189 232 189 232 278 121.5 c 128,-1,5
 367 11 367 11 467 11 c 1,6,-1
 540 -7 l 257,7,8
 506 -14 506 -14 467 -14 c 0,9,10
 309 -14 309 -14 197 101.5 c 128,-1,11
 85 217 85 217 85 380 c 128,-1,12
 85 543 85 543 197 658 c 128,-1,13
 309 773 309 773 467 773 c 0,14,15
 506 773 506 773 540 766 c 1,16,-1
 467 744 l 257,0,1
EndSplineSet
EndChar

StartChar: parenright
Encoding: 41 41 11
Width: 555
VWidth: 0
Flags: W
LayerCount: 2
Fore
SplineSet
158 744 m 261,0,-1
 85 766 l 257,1,2
 119 773 119 773 158 773 c 0,3,4
 316 773 316 773 428 658 c 128,-1,5
 540 543 540 543 540 380 c 128,-1,6
 540 217 540 217 428 101.5 c 128,-1,7
 316 -14 316 -14 158 -14 c 0,8,9
 119 -14 119 -14 85 -7 c 1,10,-1
 158 11 l 257,11,12
 258 11 258 11 347 121.5 c 128,-1,13
 436 232 436 232 436 378 c 0,14,15
 436 523 436 523 347 633.5 c 128,-1,16
 258 744 258 744 158 744 c 261,0,-1
EndSplineSet
EndChar

StartChar: asterisk
Encoding: 42 42 12
Width: 644
VWidth: 0
Flags: W
LayerCount: 2
Fore
SplineSet
629 496 m 1,0,-1
 629 344 l 1,1,-1
 540 344 l 1,2,-1
 603 281 l 1,3,-1
 496 174 l 1,4,-1
 433 237 l 1,5,-1
 433 149 l 1,6,-1
 281 149 l 1,7,-1
 281 237 l 1,8,-1
 218 174 l 1,9,-1
 111 281 l 1,10,-1
 174 344 l 1,11,-1
 85 344 l 1,12,-1
 85 496 l 1,13,-1
 174 496 l 1,14,-1
 111 559 l 1,15,-1
 218 666 l 1,16,-1
 281 603 l 1,17,-1
 281 692 l 1,18,-1
 433 692 l 1,19,-1
 433 603 l 1,20,-1
 496 666 l 1,21,-1
 603 559 l 1,22,-1
 540 496 l 1,23,-1
 629 496 l 1,0,-1
EndSplineSet
EndChar

StartChar: plus
Encoding: 43 43 13
Width: 642
VWidth: 0
Flags: W
LayerCount: 2
Fore
SplineSet
279 692 m 1,0,-1
 431 692 l 1,1,-1
 431 496 l 1,2,-1
 627 496 l 1,3,-1
 627 344 l 1,4,-1
 431 344 l 1,5,-1
 431 149 l 1,6,-1
 279 149 l 1,7,-1
 279 344 l 1,8,-1
 83 344 l 1,9,-1
 83 496 l 1,10,-1
 279 496 l 1,11,-1
 279 692 l 1,0,-1
EndSplineSet
EndChar

StartChar: comma
Encoding: 44 44 14
Width: 252
VWidth: 0
Flags: W
LayerCount: 2
Fore
SplineSet
85 -2 m 5,0,-1
 85 140 l 1,1,-1
 237 140 l 1,2,-1
 237 -2 l 1,3,-1
 177 -134 l 1,4,-1
 119 -130 l 1,5,-1
 128 -2 l 1,6,-1
 85 -2 l 5,0,-1
EndSplineSet
EndChar

StartChar: hyphen
Encoding: 45 45 15
Width: 644
VWidth: 0
Flags: W
LayerCount: 2
Fore
SplineSet
629 496 m 261,0,-1
 629 344 l 257,1,-1
 85 344 l 257,2,-1
 85 496 l 257,3,-1
 629 496 l 261,0,-1
EndSplineSet
EndChar

StartChar: period
Encoding: 46 46 16
Width: 252
VWidth: 0
Flags: W
LayerCount: 2
Fore
SplineSet
85 -2 m 257,0,-1
 85 140 l 257,1,-1
 237 140 l 257,2,-1
 237 -2 l 257,3,-1
 85 -2 l 257,0,-1
EndSplineSet
EndChar

StartChar: slash
Encoding: 47 47 17
Width: 691
VWidth: 0
Flags: W
LayerCount: 2
Fore
SplineSet
570 818 m 257,0,-1
 676 757 l 257,1,-1
 191 -83 l 257,2,-1
 85 -22 l 257,3,-1
 570 818 l 257,0,-1
EndSplineSet
EndChar

StartChar: zero
Encoding: 48 48 18
Width: 864
VWidth: 0
Flags: W
LayerCount: 2
Fore
SplineSet
772 380 m 256,0,1
 772 273 772 273 731.5 182 c 128,-1,2
 691 91 691 91 621 38.5 c 128,-1,3
 551 -14 551 -14 467.5 -14 c 128,-1,4
 384 -14 384 -14 313.5 38.5 c 128,-1,5
 243 91 243 91 202.5 182 c 128,-1,6
 162 273 162 273 162 380 c 0,7,8
 162 487 162 487 202.5 577.5 c 128,-1,9
 243 668 243 668 313.5 720.5 c 128,-1,10
 384 773 384 773 467.5 773 c 128,-1,11
 551 773 551 773 621 720.5 c 128,-1,12
 691 668 691 668 731.5 577.5 c 128,-1,13
 772 487 772 487 772 380 c 256,0,1
650 378 m 256,14,15
 650 475 650 475 597 543.5 c 128,-1,16
 544 612 544 612 467.5 612 c 128,-1,17
 391 612 391 612 337.5 543.5 c 128,-1,18
 284 475 284 475 284 378 c 0,19,20
 284 280 284 280 337.5 211.5 c 128,-1,21
 391 143 391 143 467.5 143 c 128,-1,22
 544 143 544 143 597 211.5 c 128,-1,23
 650 280 650 280 650 378 c 256,14,15
EndSplineSet
EndChar

StartChar: one
Encoding: 49 49 19
Width: 252
VWidth: 0
Flags: W
LayerCount: 2
Fore
SplineSet
85 774 m 257,0,-1
 237 774 l 257,1,-1
 237 -2 l 257,2,-1
 85 -2 l 257,3,-1
 85 774 l 257,0,-1
EndSplineSet
EndChar

StartChar: two
Encoding: 50 50 20
Width: 555
VWidth: 0
Flags: W
LayerCount: 2
Fore
SplineSet
165 586 m 4,0,1
 260 586 260 586 327 531 c 128,-1,2
 394 476 394 476 394 399 c 0,3,4
 394 322 394 322 328 274 c 128,-1,5
 262 226 262 226 165 226 c 0,6,7
 127 226 127 226 92 236 c 1,8,-1
 89 0 l 1,9,-1
 592 5 l 1,10,-1
 592 126 l 1,11,-1
 317 124 l 1,12,13
 421 158 421 158 484 231.5 c 128,-1,14
 547 305 547 305 547 400 c 0,15,16
 547 485 547 485 496 558 c 128,-1,17
 445 631 445 631 357 673 c 128,-1,18
 269 715 269 715 165 715 c 0,19,20
 128 715 128 715 92 709 c 1,21,-1
 92 576 l 1,22,23
 127 586 127 586 165 586 c 4,0,1
EndSplineSet
EndChar

StartChar: three
Encoding: 51 51 21
Width: 435
VWidth: 0
Flags: W
LayerCount: 2
Fore
SplineSet
85 -5 m 5,0,-1
 85 119 l 1,1,2
 98 116 98 116 111 116 c 0,3,4
 177 116 177 116 223 141 c 128,-1,5
 269 166 269 166 269 202 c 0,6,7
 269 236 269 236 242 260 c 128,-1,8
 215 284 215 284 175 288 c 0,9,10
 169 288 169 288 162.5 288 c 128,-1,11
 156 288 156 288 150 288 c 0,12,13
 143 287 143 287 136 286 c 1,14,-1
 136 289 l 1,15,-1
 136 410 l 1,16,-1
 136 413 l 1,17,18
 143 412 143 412 150 411 c 0,19,20
 156 411 156 411 162 411 c 128,-1,21
 168 411 168 411 175 411 c 0,22,23
 216 415 216 415 242.5 439 c 128,-1,24
 269 463 269 463 269 496 c 0,25,26
 269 532 269 532 225 557.5 c 128,-1,27
 181 583 181 583 117 583 c 0,28,29
 104 583 104 583 91 580 c 1,30,-1
 91 704 l 1,31,32
 104 705 104 705 117 705 c 0,33,34
 243 705 243 705 331.5 644 c 128,-1,35
 420 583 420 583 420 496 c 0,36,37
 420 410 420 410 345 349 c 1,38,39
 420 288 420 288 420 202 c 128,-1,40
 420 116 420 116 329.5 55 c 128,-1,41
 239 -6 239 -6 111 -6 c 0,42,43
 98 -6 98 -6 85 -5 c 5,0,-1
EndSplineSet
EndChar

StartChar: four
Encoding: 52 52 22
Width: 752
VWidth: 0
Flags: W
LayerCount: 2
Fore
SplineSet
429 0 m 257,0,-1
 429 192 l 257,1,-1
 428 191 l 257,2,-1
 93 191 l 257,3,-1
 415 774 l 257,4,-1
 558 774 l 257,5,-1
 558 0 l 257,6,-1
 429 0 l 257,0,-1
421 341 m 257,7,-1
 421 521 l 257,8,-1
 323 344 l 257,9,-1
 421 341 l 257,7,-1
EndSplineSet
EndChar

StartChar: five
Encoding: 53 53 23
Width: 384
VWidth: 0
Flags: W
LayerCount: 2
Fore
SplineSet
85 4 m 1,0,-1
 85 157 l 1,1,2
 97 154 97 154 111 154 c 0,3,4
 156 154 156 154 187 185 c 128,-1,5
 218 216 218 216 218 260 c 0,6,7
 218 305 218 305 187 336 c 128,-1,8
 156 367 156 367 111 367 c 0,9,10
 97 367 97 367 85 364 c 1,11,-1
 85 397 l 1,12,-1
 85 517 l 1,13,-1
 85 773 l 1,14,-1
 86 773 l 1,15,-1
 86 774 l 1,16,-1
 403 774 l 1,17,-1
 402 622 l 1,18,-1
 237 622 l 1,19,-1
 237 485 l 1,20,21
 297 451 297 451 333 391.5 c 128,-1,22
 369 332 369 332 369 260 c 0,23,24
 369 153 369 153 293.5 78 c 128,-1,25
 218 3 218 3 111 3 c 0,26,27
 94 3 94 3 85 4 c 1,0,-1
EndSplineSet
EndChar

StartChar: six
Encoding: 54 54 24
Width: 729
VWidth: 0
Flags: W
LayerCount: 2
Fore
SplineSet
467 612 m 0,0,1
 382 612 382 612 318 556 c 128,-1,2
 254 500 254 500 241 416 c 1,3,4
 311 493 311 493 414 499 c 0,5,6
 422 500 422 500 428 500 c 0,7,8
 430 500 430 500 432 500 c 0,9,10
 433 500 l 0,11,12
 434 500 434 500 436 500 c 0,13,14
 527 500 527 500 597.5 443.5 c 128,-1,15
 668 387 668 387 688 300 c 0,16,17
 694 272 694 272 694 242 c 0,18,19
 694 202 694 202 682 164 c 0,20,21
 652 70 652 70 566 20 c 1,22,23
 517 -14 517 -14 467 -14 c 0,24,25
 463 -14 463 -14 460 -14 c 0,26,27
 448 -15 448 -15 436 -15 c 0,28,29
 435 -15 435 -15 434 -15 c 0,30,-1
 433 -15 l 0,31,32
 432 -15 l 0,33,34
 430 -15 430 -15 428 -15 c 0,35,36
 419 -15 419 -15 414 -14 c 0,37,38
 334 -7 334 -7 272 41 c 1,39,40
 186 93 186 93 135.5 183 c 128,-1,41
 85 273 85 273 85 380 c 0,42,43
 85 543 85 543 197 658 c 128,-1,44
 309 773 309 773 467 773 c 0,45,46
 550 773 550 773 586 766 c 1,47,-1
 586 600 l 1,48,49
 571 605 571 605 531 608.5 c 128,-1,50
 491 612 491 612 467 612 c 0,0,1
418 367 m 0,51,52
 407 367 407 367 394 364 c 1,53,-1
 394 365 l 1,54,55
 357 358 357 358 333 328.5 c 128,-1,56
 309 299 309 299 309 260 c 0,57,58
 309 206 309 206 353 174 c 0,59,60
 369 165 369 165 385 158 c 0,61,62
 389 157 389 157 394 156 c 1,63,-1
 394 157 l 1,64,65
 405 154 405 154 418 154 c 0,66,67
 430 154 430 154 442 157 c 1,68,-1
 442 156 l 1,69,70
 479 163 479 163 503 192.5 c 128,-1,71
 527 222 527 222 527 260 c 0,72,73
 527 299 527 299 503 328 c 128,-1,74
 479 357 479 357 442 365 c 1,75,-1
 442 364 l 1,76,77
 430 367 430 367 418 367 c 0,51,52
EndSplineSet
EndChar

StartChar: seven
Encoding: 55 55 25
Width: 610
VWidth: 0
Flags: W
LayerCount: 2
Fore
SplineSet
248 0 m 257,0,-1
 86 0 l 257,1,-1
 424 610 l 257,2,-1
 85 610 l 257,3,-1
 85 762 l 257,4,-1
 595 762 l 257,5,-1
 595 610 l 257,6,-1
 248 0 l 257,0,-1
EndSplineSet
EndChar

StartChar: eight
Encoding: 56 56 26
Width: 616
VWidth: 0
Flags: W
LayerCount: 2
Fore
SplineSet
345 367 m 256,0,1
 332 367 332 367 321 364 c 1,2,-1
 321 365 l 257,3,4
 284 358 284 358 260 328.5 c 128,-1,5
 236 299 236 299 236 260 c 0,6,7
 236 222 236 222 260 193 c 128,-1,8
 284 164 284 164 321 156 c 1,9,-1
 321 157 l 257,10,11
 332 154 332 154 345 154 c 0,12,13
 357 154 357 154 369 157 c 1,14,-1
 369 156 l 257,15,16
 406 163 406 163 430 192.5 c 128,-1,17
 454 222 454 222 454 260 c 0,18,19
 454 299 454 299 430 328 c 128,-1,20
 406 357 406 357 369 365 c 1,21,-1
 369 364 l 257,22,23
 357 367 357 367 345 367 c 256,0,1
345 672 m 256,24,25
 332 672 332 672 321 669 c 1,26,-1
 321 670 l 257,27,28
 284 663 284 663 260 633.5 c 128,-1,29
 236 604 236 604 236 565 c 0,30,31
 236 527 236 527 260 498 c 128,-1,32
 284 469 284 469 321 461 c 1,33,-1
 321 462 l 257,34,35
 332 459 332 459 345 459 c 0,36,37
 357 459 357 459 369 462 c 1,38,-1
 369 461 l 257,39,40
 406 468 406 468 430 497.5 c 128,-1,41
 454 527 454 527 454 565 c 0,42,43
 454 604 454 604 430 633 c 128,-1,44
 406 662 406 662 369 670 c 1,45,-1
 369 669 l 257,46,47
 357 672 357 672 345 672 c 256,24,25
344 3 m 0,48,49
 343 3 l 0,50,51
 341 3 341 3 339 3 c 0,52,53
 331 3 331 3 325 4 c 0,54,55
 224 11 224 11 154.5 84.5 c 128,-1,56
 85 158 85 158 85 260 c 0,57,58
 85 345 85 345 135 413 c 1,59,60
 85 481 85 481 85 565 c 0,61,62
 85 667 85 667 154.5 741.5 c 128,-1,63
 224 816 224 816 325 822 c 0,64,65
 331 823 331 823 339 823 c 0,66,67
 341 823 341 823 343 823 c 0,68,69
 344 823 l 0,70,71
 345 823 345 823 347 823 c 0,72,73
 454 823 454 823 529.5 747.5 c 128,-1,74
 605 672 605 672 605 565 c 0,75,76
 605 481 605 481 555 413 c 1,77,78
 605 345 605 345 605 260 c 0,79,80
 605 153 605 153 529.5 78 c 128,-1,81
 454 3 454 3 347 3 c 0,82,83
 346 3 346 3 345.5 3 c 128,-1,84
 345 3 345 3 344 3 c 0,48,49
EndSplineSet
EndChar

StartChar: nine
Encoding: 57 57 27
Width: 729
VWidth: 0
Flags: W
LayerCount: 2
Fore
SplineSet
312 146 m 0,0,1
 397 146 397 146 461 202 c 128,-1,2
 525 258 525 258 538 342 c 1,3,4
 468 265 468 265 365 259 c 0,5,6
 357 258 357 258 351 258 c 0,7,8
 349 258 349 258 347 258 c 0,9,10
 346 258 l 0,11,12
 345 258 345 258 343 258 c 0,13,14
 252 258 252 258 181.5 314.5 c 128,-1,15
 111 371 111 371 91 458 c 0,16,17
 85 486 85 486 85 516 c 0,18,19
 85 556 85 556 97 594 c 0,20,21
 127 688 127 688 213 738 c 1,22,23
 262 772 262 772 312 772 c 0,24,25
 316 772 316 772 319 772 c 0,26,27
 331 773 331 773 343 773 c 0,28,29
 344 773 344 773 345 773 c 0,30,-1
 346 773 l 0,31,32
 347 773 l 0,33,34
 349 773 349 773 351 773 c 0,35,36
 360 773 360 773 365 772 c 0,37,38
 445 765 445 765 507 717 c 1,39,40
 593 665 593 665 643.5 575 c 128,-1,41
 694 485 694 485 694 378 c 0,42,43
 694 215 694 215 582 100 c 128,-1,44
 470 -15 470 -15 312 -15 c 0,45,46
 229 -15 229 -15 193 -8 c 1,47,-1
 193 158 l 1,48,49
 208 153 208 153 248 149.5 c 128,-1,50
 288 146 288 146 312 146 c 0,0,1
361 391 m 0,51,52
 372 391 372 391 385 394 c 1,53,-1
 385 393 l 1,54,55
 422 400 422 400 446 429.5 c 128,-1,56
 470 459 470 459 470 498 c 0,57,58
 470 552 470 552 426 584 c 0,59,60
 410 593 410 593 394 600 c 0,61,62
 390 601 390 601 385 602 c 1,63,-1
 385 601 l 1,64,65
 374 604 374 604 361 604 c 0,66,67
 349 604 349 604 337 601 c 1,68,-1
 337 602 l 1,69,70
 300 595 300 595 276 565.5 c 128,-1,71
 252 536 252 536 252 498 c 0,72,73
 252 459 252 459 276 430 c 128,-1,74
 300 401 300 401 337 393 c 1,75,-1
 337 394 l 1,76,77
 349 391 349 391 361 391 c 0,51,52
EndSplineSet
EndChar

StartChar: colon
Encoding: 58 58 28
Width: 252
VWidth: 0
Flags: W
LayerCount: 2
Fore
SplineSet
85 398 m 261,0,-1
 85 540 l 257,1,-1
 237 540 l 257,2,-1
 237 398 l 257,3,-1
 85 398 l 261,0,-1
85 -2 m 257,4,-1
 85 140 l 257,5,-1
 237 140 l 257,6,-1
 237 -2 l 257,7,-1
 85 -2 l 257,4,-1
EndSplineSet
EndChar

StartChar: semicolon
Encoding: 59 59 29
Width: 252
VWidth: 0
Flags: W
LayerCount: 2
Fore
SplineSet
85 -2 m 5,0,-1
 85 140 l 1,1,-1
 237 140 l 1,2,-1
 237 -2 l 1,3,-1
 177 -134 l 1,4,-1
 119 -130 l 1,5,-1
 128 -2 l 1,6,-1
 85 -2 l 5,0,-1
85 398 m 257,7,-1
 85 540 l 257,8,-1
 237 540 l 257,9,-1
 237 398 l 257,10,-1
 85 398 l 257,7,-1
EndSplineSet
EndChar

StartChar: less
Encoding: 60 60 30
Width: 644
VWidth: 0
Flags: W
LayerCount: 2
Fore
SplineSet
629 546 m 5,0,-1
 629 394 l 1,1,-1
 415 338 l 1,2,-1
 629 296 l 1,3,-1
 629 144 l 1,4,-1
 85 250 l 1,5,-1
 85 251 l 1,6,-1
 85 402 l 1,7,-1
 85 403 l 1,8,-1
 629 546 l 5,0,-1
EndSplineSet
EndChar

StartChar: equal
Encoding: 61 61 31
Width: 644
VWidth: 0
Flags: W
LayerCount: 2
Fore
SplineSet
629 296 m 261,0,-1
 629 144 l 257,1,-1
 85 144 l 257,2,-1
 85 296 l 257,3,-1
 629 296 l 261,0,-1
629 546 m 257,4,-1
 629 394 l 257,5,-1
 85 394 l 257,6,-1
 85 546 l 257,7,-1
 629 546 l 257,4,-1
EndSplineSet
EndChar

StartChar: greater
Encoding: 62 62 32
Width: 644
VWidth: 0
Flags: W
LayerCount: 2
Fore
SplineSet
85 546 m 5,0,-1
 629 403 l 1,1,-1
 629 402 l 1,2,-1
 629 251 l 1,3,-1
 629 250 l 1,4,-1
 85 144 l 1,5,-1
 85 296 l 1,6,-1
 299 338 l 1,7,-1
 85 394 l 1,8,-1
 85 546 l 5,0,-1
EndSplineSet
EndChar

StartChar: question
Encoding: 63 63 33
Width: 384
VWidth: 0
Flags: W
LayerCount: 2
Fore
SplineSet
85 -2 m 257,0,-1
 85 140 l 257,1,-1
 237 140 l 257,2,-1
 237 -2 l 257,3,-1
 85 -2 l 257,0,-1
85 828 m 1,4,5
 94 829 94 829 111 829 c 0,6,7
 218 829 218 829 293.5 754 c 128,-1,8
 369 679 369 679 369 572 c 0,9,10
 369 500 369 500 333 440 c 128,-1,11
 297 380 297 380 237 347 c 1,12,-1
 237 230 l 1,13,-1
 85 230 l 1,14,-1
 85 315 l 1,15,-1
 85 440 l 1,16,-1
 85 468 l 1,17,18
 97 465 97 465 111 465 c 0,19,20
 156 465 156 465 187 496 c 128,-1,21
 218 527 218 527 218 572 c 0,22,23
 218 616 218 616 187 647 c 128,-1,24
 156 678 156 678 111 678 c 0,25,26
 97 678 97 678 85 675 c 1,27,-1
 85 828 l 1,4,5
EndSplineSet
EndChar

StartChar: B
Encoding: 66 66 34
Width: 512
VWidth: 0
Flags: W
LayerCount: 2
Fore
SplineSet
237 780 m 258,0,1
 243 780 243 780 255 780 c 0,2,3
 362 780 362 780 437.5 704.5 c 128,-1,4
 513 629 513 629 513 522 c 0,5,6
 513 499 513 499 499 477 c 128,-1,7
 485 455 485 455 460.5 429 c 128,-1,8
 436 403 436 403 430 396 c 0,9,10
 432 394 432 394 462.5 362 c 128,-1,11
 493 330 493 330 506 307.5 c 128,-1,12
 519 285 519 285 519 260 c 0,13,14
 519 153 519 153 443.5 78 c 128,-1,15
 368 3 368 3 261 3 c 0,16,17
 245 3 245 3 237 4 c 2,18,-1
 85 4 l 257,19,-1
 85 780 l 257,20,-1
 237 780 l 258,0,1
237 136 m 257,21,22
 249 133 249 133 261 133 c 256,23,24
 306 133 306 133 337 164 c 128,-1,25
 368 195 368 195 368 239 c 0,26,27
 368 284 368 284 337 315 c 128,-1,28
 306 346 306 346 261 346 c 0,29,30
 249 346 249 346 237 343 c 257,31,-1
 237 136 l 257,21,22
237 454 m 257,32,33
 249 451 249 451 261 451 c 256,34,35
 306 451 306 451 337 482 c 128,-1,36
 368 513 368 513 368 557 c 0,37,38
 368 602 368 602 337 633 c 128,-1,39
 306 664 306 664 261 664 c 0,40,41
 249 664 249 664 237 661 c 257,42,-1
 237 454 l 257,32,33
EndSplineSet
EndChar

StartChar: C
Encoding: 67 67 35
Width: 555
VWidth: 0
Flags: W
LayerCount: 2
Fore
SplineSet
467 612 m 260,0,1
 372 612 372 612 305 543.5 c 128,-1,2
 238 475 238 475 238 378 c 0,3,4
 238 280 238 280 305 211.5 c 128,-1,5
 372 143 372 143 467 143 c 0,6,7
 505 143 505 143 540 155 c 1,8,-1
 540 -7 l 257,9,10
 504 -14 504 -14 467 -14 c 0,11,12
 309 -14 309 -14 197 101.5 c 128,-1,13
 85 217 85 217 85 380 c 128,-1,14
 85 543 85 543 197 658 c 128,-1,15
 309 773 309 773 467 773 c 0,16,17
 504 773 504 773 540 766 c 1,18,-1
 540 600 l 257,19,20
 505 612 505 612 467 612 c 260,0,1
EndSplineSet
EndChar

StartChar: D
Encoding: 68 68 36
Width: 630
VWidth: 0
Flags: W
LayerCount: 2
Fore
SplineSet
85 768 m 257,0,1
 100 763 100 763 159 768 c 128,-1,2
 218 773 218 773 233 773 c 0,3,4
 391 773 391 773 503 658 c 128,-1,5
 615 543 615 543 615 380 c 0,6,7
 615 273 615 273 564.5 183 c 128,-1,8
 514 93 514 93 427 40 c 128,-1,9
 340 -13 340 -13 237 -14 c 0,10,-1
 85 -14 l 257,11,-1
 85 768 l 257,0,1
237 143 m 257,12,13
 331 145 331 145 396.5 213.5 c 128,-1,14
 462 282 462 282 462 378 c 0,15,16
 462 474 462 474 396.5 542 c 128,-1,17
 331 610 331 610 237 612 c 1,18,-1
 237 143 l 257,12,13
EndSplineSet
EndChar

StartChar: E
Encoding: 69 69 37
Width: 668
VWidth: 0
Flags: W
LayerCount: 2
Fore
SplineSet
544 485 m 257,0,-1
 545 333 l 257,1,-1
 237 333 l 257,2,-1
 237 149 l 257,3,-1
 652 149 l 257,4,-1
 653 -3 l 257,5,-1
 86 -3 l 257,6,-1
 86 -2 l 257,7,-1
 85 -2 l 257,8,-1
 85 774 l 257,9,-1
 85 778 l 257,10,-1
 652 778 l 257,11,-1
 653 626 l 257,12,-1
 237 626 l 257,13,-1
 237 485 l 257,14,-1
 544 485 l 257,0,-1
EndSplineSet
EndChar

StartChar: F
Encoding: 70 70 38
Width: 668
VWidth: 0
Flags: W
LayerCount: 2
Fore
SplineSet
544 485 m 257,0,-1
 545 333 l 257,1,-1
 237 333 l 257,2,-1
 237 -2 l 257,3,-1
 85 -2 l 257,4,-1
 85 774 l 257,5,-1
 85 778 l 257,6,-1
 652 778 l 257,7,-1
 653 626 l 257,8,-1
 237 626 l 257,9,-1
 237 485 l 257,10,-1
 544 485 l 257,0,-1
EndSplineSet
EndChar

StartChar: G
Encoding: 71 71 39
Width: 651
VWidth: 0
Flags: W
LayerCount: 2
Fore
SplineSet
467 612 m 256,0,1
 372 612 372 612 305 543.5 c 128,-1,2
 238 475 238 475 238 378 c 0,3,4
 238 280 238 280 305 211.5 c 128,-1,5
 372 143 372 143 467 143 c 0,6,7
 476 143 476 143 484 144 c 1,8,-1
 484 313 l 257,9,-1
 636 313 l 257,10,-1
 636 -14 l 257,11,-1
 484 -14 l 258,12,13
 476 -14 476 -14 467 -14 c 0,14,15
 309 -14 309 -14 197 101.5 c 128,-1,16
 85 217 85 217 85 380 c 128,-1,17
 85 543 85 543 197 658 c 128,-1,18
 309 773 309 773 467 773 c 0,19,20
 504 773 504 773 540 766 c 1,21,-1
 540 600 l 257,22,23
 505 612 505 612 467 612 c 256,0,1
EndSplineSet
EndChar

StartChar: H
Encoding: 72 72 40
Width: 652
VWidth: 0
Flags: W
LayerCount: 2
Fore
SplineSet
485 774 m 257,0,-1
 637 774 l 257,1,-1
 637 -2 l 257,2,-1
 485 -2 l 257,3,-1
 485 333 l 257,4,-1
 237 333 l 257,5,-1
 237 -2 l 257,6,-1
 85 -2 l 257,7,-1
 85 774 l 257,8,-1
 237 774 l 257,9,-1
 237 485 l 257,10,-1
 485 485 l 257,11,-1
 485 774 l 257,0,-1
EndSplineSet
EndChar

StartChar: I
Encoding: 73 73 41
Width: 252
VWidth: 0
Flags: W
LayerCount: 2
Fore
SplineSet
85 774 m 257,0,-1
 237 774 l 257,1,-1
 237 -2 l 257,2,-1
 85 -2 l 257,3,-1
 85 774 l 257,0,-1
EndSplineSet
EndChar

StartChar: J
Encoding: 74 74 42
Width: 419
VWidth: 0
Flags: W
LayerCount: 2
Fore
SplineSet
85 6 m 257,0,-1
 85 174 l 257,1,2
 116 148 116 148 156 148 c 0,3,4
 205 148 205 148 237 185 c 1,5,-1
 237 761 l 257,6,-1
 404 761 l 257,7,-1
 401 184 l 257,8,9
 377 101 377 101 310 49 c 128,-1,10
 243 -3 243 -3 156 -3 c 0,11,12
 119 -3 119 -3 85 6 c 257,0,-1
EndSplineSet
EndChar

StartChar: K
Encoding: 75 75 43
Width: 703
VWidth: 0
Flags: W
LayerCount: 2
Fore
SplineSet
85 774 m 257,0,-1
 237 774 l 257,1,-1
 237 433 l 257,2,-1
 482 770 l 257,3,-1
 668 768 l 257,4,-1
 407 387 l 257,5,-1
 738 -3 l 257,6,-1
 546 -2 l 257,7,-1
 294 302 l 257,8,-1
 237 219 l 257,9,-1
 237 -2 l 257,10,-1
 85 -2 l 257,11,-1
 85 774 l 257,0,-1
EndSplineSet
EndChar

StartChar: L
Encoding: 76 76 44
Width: 718
VWidth: 0
Flags: W
LayerCount: 2
Fore
SplineSet
85 774 m 261,0,-1
 237 774 l 257,1,-1
 237 149 l 257,2,-1
 702 149 l 257,3,-1
 703 -3 l 257,4,-1
 86 -3 l 257,5,-1
 86 -2 l 257,6,-1
 85 -2 l 257,7,-1
 85 774 l 261,0,-1
EndSplineSet
EndChar

StartChar: M
Encoding: 77 77 45
Width: 1052
VWidth: 0
Flags: W
LayerCount: 2
Fore
SplineSet
85 768 m 257,0,-1
 237 768 l 257,1,-1
 561 146 l 257,2,-1
 885 768 l 257,3,-1
 1037 768 l 257,4,-1
 1037 -2 l 257,5,-1
 885 -2 l 257,6,-1
 885 476 l 257,7,-1
 637 0 l 257,8,-1
 485 0 l 257,9,-1
 237 476 l 257,10,-1
 237 -2 l 257,11,-1
 85 -2 l 257,12,-1
 85 768 l 257,0,-1
EndSplineSet
EndChar

StartChar: N
Encoding: 78 78 46
Width: 852
VWidth: 0
Flags: W
LayerCount: 2
Fore
SplineSet
85 774 m 257,0,-1
 237 774 l 257,1,-1
 685 251 l 257,2,-1
 685 774 l 257,3,-1
 837 774 l 257,4,-1
 837 -2 l 257,5,-1
 685 -2 l 257,6,-1
 237 523 l 257,7,-1
 237 -2 l 257,8,-1
 85 -2 l 257,9,-1
 85 774 l 257,0,-1
EndSplineSet
EndChar

StartChar: O
Encoding: 79 79 47
Width: 864
VWidth: 0
Flags: W
LayerCount: 2
Fore
SplineSet
849 380 m 260,0,1
 849 217 849 217 737 101.5 c 128,-1,2
 625 -14 625 -14 467 -14 c 128,-1,3
 309 -14 309 -14 197 101.5 c 128,-1,4
 85 217 85 217 85 380 c 128,-1,5
 85 543 85 543 197 658 c 128,-1,6
 309 773 309 773 467 773 c 128,-1,7
 625 773 625 773 737 658 c 128,-1,8
 849 543 849 543 849 380 c 260,0,1
696 378 m 260,9,10
 696 475 696 475 629 543.5 c 128,-1,11
 562 612 562 612 467 612 c 128,-1,12
 372 612 372 612 305 543.5 c 128,-1,13
 238 475 238 475 238 378 c 0,14,15
 238 280 238 280 305 211.5 c 128,-1,16
 372 143 372 143 467 143 c 128,-1,17
 562 143 562 143 629 211.5 c 128,-1,18
 696 280 696 280 696 378 c 260,9,10
EndSplineSet
EndChar

StartChar: P
Encoding: 80 80 48
Width: 534
VWidth: 0
Flags: W
LayerCount: 2
Fore
SplineSet
237 3 m 257,0,-1
 85 3 l 257,1,-1
 85 779 l 257,2,-1
 237 779 l 258,3,4
 245 780 245 780 261 780 c 0,5,6
 368 780 368 780 443.5 705 c 128,-1,7
 519 630 519 630 519 523 c 128,-1,8
 519 416 519 416 443.5 340.5 c 128,-1,9
 368 265 368 265 261 265 c 0,10,11
 245 265 245 265 237 266 c 1,12,-1
 237 3 l 257,0,-1
237 626 m 257,13,-1
 237 419 l 257,14,15
 249 416 249 416 261 416 c 256,16,17
 306 416 306 416 337 447 c 128,-1,18
 368 478 368 478 368 523 c 0,19,20
 368 567 368 567 337 598 c 128,-1,21
 306 629 306 629 261 629 c 0,22,23
 249 629 249 629 237 626 c 257,13,-1
EndSplineSet
EndChar

StartChar: Q
Encoding: 81 81 49
Width: 864
VWidth: 0
Flags: W
LayerCount: 2
Fore
SplineSet
696 378 m 256,0,1
 696 475 696 475 629 543.5 c 128,-1,2
 562 612 562 612 467 612 c 128,-1,3
 372 612 372 612 305 543.5 c 128,-1,4
 238 475 238 475 238 378 c 0,5,6
 238 280 238 280 305 211.5 c 128,-1,7
 372 143 372 143 467 143 c 128,-1,8
 562 143 562 143 629 211.5 c 128,-1,9
 696 280 696 280 696 378 c 256,0,1
849 380 m 256,10,11
 849 293 849 293 815 216.5 c 128,-1,12
 781 140 781 140 720 85 c 1,13,-1
 857 -52 l 257,14,-1
 719 -191 l 257,15,-1
 536 -8 l 257,16,17
 502 -14 502 -14 467 -14 c 0,18,19
 309 -14 309 -14 197 101.5 c 128,-1,20
 85 217 85 217 85 380 c 128,-1,21
 85 543 85 543 197 658 c 128,-1,22
 309 773 309 773 467 773 c 128,-1,23
 625 773 625 773 737 658 c 128,-1,24
 849 543 849 543 849 380 c 256,10,11
EndSplineSet
EndChar

StartChar: R
Encoding: 82 82 50
Width: 512
VWidth: 0
Flags: W
LayerCount: 2
Fore
SplineSet
237 626 m 257,0,-1
 237 419 l 257,1,2
 249 416 249 416 261 416 c 256,3,4
 306 416 306 416 337 447 c 128,-1,5
 368 478 368 478 368 523 c 0,6,7
 368 567 368 567 337 598 c 128,-1,8
 306 629 306 629 261 629 c 0,9,10
 249 629 249 629 237 626 c 257,0,-1
237 3 m 257,11,-1
 85 3 l 257,12,-1
 85 779 l 257,13,-1
 237 779 l 258,14,15
 245 780 245 780 261 780 c 0,16,17
 368 780 368 780 443.5 705 c 128,-1,18
 519 630 519 630 519 523 c 0,19,20
 519 440 519 440 471.5 373.5 c 128,-1,21
 424 307 424 307 348 280 c 1,22,-1
 547 -3 l 257,23,-1
 407 -3 l 257,24,-1
 242 266 l 258,25,26
 239 266 239 266 237 266 c 1,27,-1
 237 3 l 257,11,-1
EndSplineSet
EndChar

StartChar: S
Encoding: 83 83 51
Width: 512
VWidth: 0
Flags: W
LayerCount: 2
Fore
SplineSet
90 57 m 257,0,-1
 165 182 l 257,1,2
 177 172 177 172 187 167 c 0,3,4
 225 145 225 145 267 155.5 c 128,-1,5
 309 166 309 166 332 202 c 0,6,7
 354 241 354 241 329.5 274.5 c 128,-1,8
 305 308 305 308 262 315 c 1,9,10
 195 351 195 351 154.5 398 c 128,-1,11
 114 445 114 445 103.5 507.5 c 128,-1,12
 93 570 93 570 136 639 c 0,13,14
 188 726 188 726 291 751.5 c 128,-1,15
 394 777 394 777 488 727 c 0,16,17
 491 724 491 724 498.5 719.5 c 128,-1,18
 506 715 506 715 509 712 c 1,19,-1
 434 587 l 257,20,21
 422 597 422 597 412 602 c 0,22,23
 374 623 374 623 331.5 612.5 c 128,-1,24
 289 602 289 602 267 565 c 0,25,26
 242 524 242 524 262.5 475 c 128,-1,27
 283 426 283 426 331 418 c 1,28,29
 380 392 380 392 413.5 365.5 c 128,-1,30
 447 339 447 339 471.5 303.5 c 128,-1,31
 496 268 496 268 494.5 224 c 128,-1,32
 493 180 493 180 462 130 c 0,33,34
 410 42 410 42 307.5 16.5 c 128,-1,35
 205 -9 205 -9 111 42 c 0,36,37
 108 45 108 45 100.5 49.5 c 128,-1,38
 93 54 93 54 90 57 c 257,0,-1
EndSplineSet
EndChar

StartChar: T
Encoding: 84 84 52
Width: 676
VWidth: 0
Flags: W
LayerCount: 2
Fore
SplineSet
88 614 m 1,0,-1
 88 766 l 5,1,-1
 664 766 l 5,2,-1
 664 614 l 1,3,-1
 452 614 l 1,4,-1
 452 -2 l 1,5,-1
 300 -2 l 1,6,-1
 300 614 l 1,7,-1
 88 614 l 1,0,-1
EndSplineSet
EndChar

StartChar: U
Encoding: 85 85 53
Width: 669
VWidth: 0
Flags: W
LayerCount: 2
Fore
SplineSet
651 184 m 257,0,1
 635 126 635 126 590.5 84.5 c 128,-1,2
 546 43 546 43 490 23.5 c 128,-1,3
 434 4 434 4 370 3.5 c 128,-1,4
 306 3 306 3 249.5 22 c 128,-1,5
 193 41 193 41 149 83 c 128,-1,6
 105 125 105 125 88 184 c 1,7,-1
 85 761 l 257,8,-1
 252 761 l 257,9,-1
 252 185 l 257,10,11
 281 152 281 152 370 151.5 c 128,-1,12
 459 151 459 151 487 185 c 1,13,-1
 487 761 l 257,14,-1
 654 761 l 257,15,-1
 651 184 l 257,0,1
EndSplineSet
EndChar

StartChar: V
Encoding: 86 86 54
Width: 652
VWidth: 0
Flags: W
LayerCount: 2
Fore
SplineSet
85 769 m 257,0,-1
 237 769 l 257,1,-1
 361 292 l 257,2,-1
 485 769 l 257,3,-1
 637 769 l 257,4,-1
 437 0 l 257,5,-1
 285 0 l 257,6,-1
 85 769 l 257,0,-1
EndSplineSet
EndChar

StartChar: W
Encoding: 87 87 55
Width: 1000
VWidth: 0
Flags: W
LayerCount: 2
Fore
SplineSet
85 769 m 1,0,-1
 237 769 l 1,1,-1
 361 292 l 1,2,-1
 485 769 l 1,3,-1
 486 769 l 1,4,-1
 637 769 l 1,5,-1
 638 769 l 1,6,-1
 762 292 l 1,7,-1
 886 769 l 1,8,-1
 1038 769 l 1,9,-1
 838 0 l 1,10,-1
 686 0 l 1,11,-1
 562 479 l 1,12,-1
 437 0 l 1,13,-1
 285 0 l 1,14,-1
 85 769 l 1,0,-1
EndSplineSet
EndChar

StartChar: X
Encoding: 88 88 56
Width: 724
VWidth: 0
Flags: W
LayerCount: 2
Fore
SplineSet
85 770 m 257,0,-1
 271 768 l 257,1,-1
 401 541 l 257,2,-1
 533 769 l 257,3,-1
 708 768 l 257,4,-1
 488 388 l 257,5,-1
 709 0 l 257,6,-1
 534 -2 l 257,7,-1
 398 233 l 257,8,-1
 264 2 l 257,9,-1
 86 -1 l 257,10,-1
 310 384 l 257,11,-1
 85 770 l 257,0,-1
EndSplineSet
EndChar

StartChar: Y
Encoding: 89 89 57
Width: 512
VWidth: 0
Flags: W
LayerCount: 2
Fore
SplineSet
228 451 m 257,0,-1
 29 765 l 257,1,-1
 181 765 l 257,2,-1
 305 594 l 257,3,-1
 429 765 l 257,4,-1
 581 765 l 257,5,-1
 381 450 l 257,6,-1
 380 450 l 257,7,-1
 380 1 l 257,8,-1
 228 1 l 257,9,-1
 228 451 l 257,0,-1
EndSplineSet
EndChar

StartChar: Z
Encoding: 90 90 58
Width: 783
VWidth: 0
Flags: W
LayerCount: 2
Fore
SplineSet
85 10 m 257,0,-1
 85 162 l 257,1,-1
 515 610 l 257,2,-1
 85 610 l 257,3,-1
 85 762 l 257,4,-1
 768 762 l 257,5,-1
 768 610 l 257,6,-1
 336 162 l 257,7,-1
 768 162 l 257,8,-1
 768 10 l 257,9,-1
 85 10 l 257,0,-1
EndSplineSet
EndChar

StartChar: bracketleft
Encoding: 91 91 59
Width: 362
VWidth: 0
Flags: W
LayerCount: 2
Fore
SplineSet
86 -80 m 5,0,-1
 85 -80 l 1,1,-1
 85 -79 l 1,2,-1
 85 773 l 1,3,-1
 85 774 l 1,4,-1
 86 774 l 1,5,-1
 347 774 l 1,6,-1
 346 689 l 1,7,-1
 179 689 l 1,8,-1
 179 5 l 1,9,-1
 346 5 l 1,10,-1
 347 -80 l 1,11,-1
 86 -80 l 5,0,-1
EndSplineSet
EndChar

StartChar: backslash
Encoding: 92 92 60
Width: 691
VWidth: 0
Flags: W
LayerCount: 2
Fore
SplineSet
191 818 m 257,0,-1
 676 -22 l 257,1,-1
 570 -83 l 257,2,-1
 85 757 l 257,3,-1
 191 818 l 257,0,-1
EndSplineSet
EndChar

StartChar: bracketright
Encoding: 93 93 61
Width: 362
VWidth: 0
Flags: W
LayerCount: 2
Fore
SplineSet
346 -81 m 1,0,-1
 85 -81 l 1,1,-1
 86 4 l 1,2,-1
 253 4 l 1,3,-1
 253 689 l 1,4,-1
 86 689 l 1,5,-1
 85 774 l 1,6,-1
 346 774 l 1,7,-1
 347 774 l 1,8,-1
 347 773 l 1,9,-1
 347 -80 l 1,10,-1
 347 -81 l 1,11,-1
 346 -81 l 1,0,-1
EndSplineSet
EndChar

StartChar: asciicircum
Encoding: 94 94 62
Width: 644
VWidth: 0
Flags: W
LayerCount: 2
Fore
SplineSet
156 283 m 1,0,-1
 299 617 l 1,1,-1
 300 617 l 1,2,-1
 451 617 l 1,3,-1
 452 617 l 1,4,-1
 558 283 l 1,5,-1
 406 283 l 1,6,-1
 364 497 l 1,7,-1
 308 283 l 1,8,-1
 156 283 l 1,0,-1
EndSplineSet
EndChar

StartChar: underscore
Encoding: 95 95 63
Width: 544
VWidth: 0
Flags: W
LayerCount: 2
Fore
SplineSet
579 196 m 261,0,-1
 579 44 l 257,1,-1
 35 44 l 257,2,-1
 35 196 l 257,3,-1
 579 196 l 261,0,-1
EndSplineSet
EndChar

StartChar: grave
Encoding: 96 96 64
Width: 252
VWidth: 0
Flags: W
LayerCount: 2
Fore
SplineSet
198 516 m 261,0,-1
 16 698 l 257,1,-1
 124 805 l 257,2,-1
 306 623 l 257,3,-1
 198 516 l 261,0,-1
EndSplineSet
EndChar

StartChar: a
Encoding: 97 97 65
Width: 512
VWidth: 0
Flags: W
LayerCount: 2
Fore
SplineSet
367 1 m 257,0,-1
 367 9 l 257,1,2
 359 8 359 8 343 8 c 0,3,4
 236 8 236 8 160.5 83.5 c 128,-1,5
 85 159 85 159 85 266 c 0,6,7
 85 372 85 372 160 443.5 c 128,-1,8
 235 515 235 515 343 515 c 0,9,10
 359 515 359 515 367 514 c 2,11,-1
 519 514 l 257,12,-1
 519 1 l 257,13,-1
 367 1 l 257,0,-1
367 369 m 257,14,15
 355 372 355 372 343 372 c 256,16,17
 298 372 298 372 267 341 c 128,-1,18
 236 310 236 310 236 266 c 0,19,20
 236 221 236 221 267 190 c 128,-1,21
 298 159 298 159 343 159 c 0,22,23
 355 159 355 159 367 162 c 257,24,-1
 367 369 l 257,14,15
EndSplineSet
EndChar

StartChar: b
Encoding: 98 98 66
Width: 512
VWidth: 0
Flags: W
LayerCount: 2
Fore
SplineSet
237 780 m 257,0,-1
 237 517 l 257,1,2
 245 518 245 518 261 518 c 0,3,4
 368 518 368 518 443.5 442.5 c 128,-1,5
 519 367 519 367 519 260 c 128,-1,6
 519 153 519 153 443.5 78 c 128,-1,7
 368 3 368 3 261 3 c 0,8,9
 245 3 245 3 237 4 c 2,10,-1
 85 4 l 257,11,-1
 85 780 l 257,12,-1
 237 780 l 257,0,-1
237 157 m 257,13,14
 249 154 249 154 261 154 c 256,15,16
 306 154 306 154 337 185 c 128,-1,17
 368 216 368 216 368 260 c 0,18,19
 368 305 368 305 337 336 c 128,-1,20
 306 367 306 367 261 367 c 0,21,22
 249 367 249 367 237 364 c 257,23,-1
 237 157 l 257,13,14
EndSplineSet
EndChar

StartChar: c
Encoding: 99 99 67
Width: 384
VWidth: 0
Flags: W
LayerCount: 2
Fore
SplineSet
369 4 m 261,0,1
 356 3 356 3 343 3 c 0,2,3
 236 3 236 3 160.5 78 c 128,-1,4
 85 153 85 153 85 260 c 128,-1,5
 85 367 85 367 160.5 442.5 c 128,-1,6
 236 518 236 518 343 518 c 0,7,8
 356 518 356 518 369 517 c 1,9,-1
 369 364 l 257,10,11
 356 367 356 367 343 367 c 0,12,13
 298 367 298 367 267 336 c 128,-1,14
 236 305 236 305 236 260 c 0,15,16
 236 216 236 216 267 185 c 128,-1,17
 298 154 298 154 343 154 c 0,18,19
 356 154 356 154 369 157 c 1,20,-1
 369 4 l 261,0,1
EndSplineSet
EndChar

StartChar: d
Encoding: 100 100 68
Width: 512
VWidth: 0
Flags: W
LayerCount: 2
Fore
SplineSet
367 780 m 257,0,-1
 519 780 l 257,1,-1
 519 4 l 257,2,-1
 367 4 l 258,3,4
 355 3 355 3 343 3 c 0,5,6
 236 3 236 3 160.5 78 c 128,-1,7
 85 153 85 153 85 260 c 128,-1,8
 85 367 85 367 160.5 442.5 c 128,-1,9
 236 518 236 518 343 518 c 0,10,11
 355 518 355 518 367 517 c 1,12,-1
 367 780 l 257,0,-1
367 157 m 257,13,-1
 367 364 l 257,14,15
 355 367 355 367 343 367 c 0,16,17
 298 367 298 367 267 336 c 128,-1,18
 236 305 236 305 236 260 c 0,19,20
 236 216 236 216 267 185 c 128,-1,21
 298 154 298 154 343 154 c 0,22,23
 355 154 355 154 367 157 c 257,13,-1
EndSplineSet
EndChar

StartChar: e
Encoding: 101 101 69
Width: 617
VWidth: 0
Flags: W
LayerCount: 2
Fore
SplineSet
601 260 m 256,0,1
 601 250 601 250 601.5 232.5 c 128,-1,2
 602 215 602 215 602 208 c 1,3,-1
 251 205 l 257,4,5
 265 181 265 181 289.5 167.5 c 128,-1,6
 314 154 314 154 343 154 c 0,7,8
 377 154 377 154 480.5 156.5 c 128,-1,9
 584 159 584 159 592 162 c 1,10,-1
 592 6 l 257,11,12
 573 3 573 3 343 3 c 0,13,14
 236 3 236 3 160.5 78 c 128,-1,15
 85 153 85 153 85 260 c 128,-1,16
 85 367 85 367 160.5 442.5 c 128,-1,17
 236 518 236 518 343 518 c 128,-1,18
 450 518 450 518 525.5 442.5 c 128,-1,19
 601 367 601 367 601 260 c 256,0,1
265 334 m 257,20,-1
 422 332 l 257,21,22
 390 367 390 367 343 367 c 0,23,24
 296 367 296 367 265 334 c 257,20,-1
EndSplineSet
EndChar

StartChar: f
Encoding: 102 102 70
Width: 512
VWidth: 0
Flags: W
LayerCount: 2
Fore
SplineSet
499 752 m 1,0,-1
 499 584 l 1,1,2
 468 610 468 610 428 610 c 0,3,4
 379 610 379 610 347 573 c 1,5,-1
 347 511 l 1,6,-1
 444 511 l 1,7,-1
 444 359 l 1,8,-1
 347 359 l 1,9,-1
 347 -3 l 1,10,-1
 180 -3 l 1,11,-1
 182 359 l 1,12,-1
 85 359 l 1,13,-1
 85 511 l 1,14,-1
 183 511 l 1,15,-1
 183 574 l 1,16,17
 207 657 207 657 274 709 c 128,-1,18
 341 761 341 761 428 761 c 0,19,20
 465 761 465 761 499 752 c 1,0,-1
EndSplineSet
EndChar

StartChar: g
Encoding: 103 103 71
Width: 620
VWidth: 0
Flags: W
LayerCount: 2
Fore
SplineSet
345 367 m 256,0,1
 332 367 332 367 321 364 c 1,2,-1
 321 365 l 257,3,4
 284 358 284 358 260 328.5 c 128,-1,5
 236 299 236 299 236 260 c 0,6,7
 236 222 236 222 260 193 c 128,-1,8
 284 164 284 164 321 156 c 1,9,-1
 321 157 l 257,10,11
 332 154 332 154 345 154 c 0,12,13
 357 154 357 154 369 157 c 1,14,-1
 369 156 l 257,15,16
 406 163 406 163 430 192.5 c 128,-1,17
 454 222 454 222 454 260 c 0,18,19
 454 299 454 299 430 328 c 128,-1,20
 406 357 406 357 369 365 c 1,21,-1
 369 364 l 257,22,23
 357 367 357 367 345 367 c 256,0,1
344 3 m 256,24,25
 343 3 l 256,26,27
 341 3 341 3 339 3 c 256,28,29
 338 3 338 3 335 3 c 0,30,31
 298 3 298 3 294 4 c 0,32,33
 196 11 196 11 140.5 82.5 c 128,-1,34
 85 154 85 154 85 260 c 0,35,36
 85 362 85 362 154.5 436.5 c 128,-1,37
 224 511 224 511 325 517 c 0,38,39
 331 517 331 517 339 518 c 0,40,41
 341 518 341 518 343 518 c 256,42,43
 344 518 l 256,44,45
 345 518 345 518 347 518 c 0,46,47
 454 518 454 518 529.5 443 c 128,-1,48
 605 368 605 368 605 261 c 0,49,-1
 605 261 l 258,50,51
 605 260 l 256,52,53
 605 257 605 257 605 253 c 258,54,-1
 602 -18 l 257,55,56
 578 -101 578 -101 512.5 -153 c 128,-1,57
 447 -205 447 -205 360 -205 c 0,58,59
 189 -205 189 -205 155 -196 c 1,60,-1
 155 -28 l 257,61,62
 167 -38 167 -38 246 -46 c 128,-1,63
 325 -54 325 -54 360 -54 c 0,64,65
 386 -54 386 -54 412.5 -44 c 128,-1,66
 439 -34 439 -34 454 -17 c 1,67,-1
 454 26 l 257,68,69
 403 3 403 3 347 3 c 0,70,71
 345 3 345 3 344 3 c 256,24,25
EndSplineSet
EndChar

StartChar: h
Encoding: 104 104 72
Width: 597
VWidth: 0
Flags: W
LayerCount: 2
Fore
SplineSet
85 768 m 257,0,-1
 254 768 l 257,1,-1
 254 512 l 257,2,3
 293 524 293 524 334 524 c 0,4,5
 421 524 421 524 488 472 c 128,-1,6
 555 420 555 420 579 337 c 1,7,-1
 582 6 l 257,8,-1
 415 6 l 257,9,-1
 415 336 l 257,10,11
 383 373 383 373 334 373 c 0,12,13
 286 373 286 373 254 338 c 1,14,-1
 254 6 l 257,15,-1
 85 6 l 257,16,-1
 85 768 l 257,0,-1
EndSplineSet
EndChar

StartChar: i
Encoding: 105 105 73
Width: 252
VWidth: 0
Flags: W
LayerCount: 2
Fore
SplineSet
85 512 m 257,0,-1
 237 512 l 257,1,-1
 237 -2 l 257,2,-1
 85 -2 l 257,3,-1
 85 512 l 257,0,-1
85 772 m 257,4,-1
 237 772 l 257,5,-1
 237 630 l 257,6,-1
 85 630 l 257,7,-1
 85 772 l 257,4,-1
EndSplineSet
EndChar

StartChar: j
Encoding: 106 106 74
Width: 419
VWidth: 0
Flags: W
LayerCount: 2
Fore
SplineSet
85 -195 m 257,0,-1
 85 -27 l 257,1,2
 116 -53 116 -53 156 -53 c 0,3,4
 205 -53 205 -53 237 -16 c 1,5,-1
 237 517 l 257,6,-1
 404 517 l 257,7,-1
 401 -17 l 257,8,9
 377 -100 377 -100 310 -152 c 128,-1,10
 243 -204 243 -204 156 -204 c 0,11,12
 119 -204 119 -204 85 -195 c 257,0,-1
249 772 m 257,13,-1
 401 772 l 257,14,-1
 401 630 l 257,15,-1
 249 630 l 257,16,-1
 249 772 l 257,13,-1
EndSplineSet
EndChar

StartChar: k
Encoding: 107 107 75
Width: 753
VWidth: 0
Flags: W
LayerCount: 2
Fore
SplineSet
96 774 m 257,0,-1
 237 774 l 257,1,-1
 237 317 l 257,2,-1
 482 529 l 257,3,-1
 675 527 l 257,4,-1
 414 284 l 257,5,-1
 684 -3 l 257,6,-1
 498 -2 l 257,7,-1
 294 226 l 257,8,-1
 237 154 l 257,9,-1
 237 -2 l 257,10,-1
 96 -2 l 257,11,-1
 96 774 l 257,0,-1
EndSplineSet
EndChar

StartChar: l
Encoding: 108 108 76
Width: 419
VWidth: 0
Flags: W
LayerCount: 2
Fore
SplineSet
399 6 m 257,0,1
 365 -3 365 -3 328 -3 c 0,2,3
 241 -3 241 -3 174 49 c 128,-1,4
 107 101 107 101 83 184 c 257,5,-1
 80 761 l 257,6,-1
 247 761 l 257,7,-1
 247 185 l 1,8,9
 279 148 279 148 328 148 c 0,10,11
 368 148 368 148 399 174 c 257,12,-1
 399 6 l 257,0,1
EndSplineSet
EndChar

StartChar: m
Encoding: 109 109 77
Width: 924
VWidth: 0
Flags: W
LayerCount: 2
Fore
SplineSet
85 522 m 257,0,-1
 254 522 l 257,1,-1
 254 512 l 257,2,3
 293 524 293 524 334 524 c 0,4,5
 421 524 421 524 488 472 c 128,-1,6
 555 420 555 420 579 337 c 1,7,-1
 582 6 l 257,8,-1
 415 6 l 257,9,-1
 415 336 l 257,10,11
 383 373 383 373 334 373 c 0,12,13
 286 373 286 373 254 338 c 1,14,-1
 254 6 l 257,15,-1
 85 6 l 257,16,-1
 85 522 l 257,0,-1
416 429 m 257,17,-1
 581 512 l 257,18,19
 620 524 620 524 661 524 c 0,20,21
 748 524 748 524 815 472 c 128,-1,22
 882 420 882 420 906 337 c 1,23,-1
 909 6 l 257,24,-1
 742 6 l 257,25,-1
 742 336 l 257,26,27
 710 373 710 373 661 373 c 0,28,29
 613 373 613 373 581 338 c 1,30,-1
 581 6 l 257,31,-1
 412 6 l 257,32,-1
 416 429 l 257,17,-1
EndSplineSet
EndChar

StartChar: n
Encoding: 110 110 78
Width: 597
VWidth: 0
Flags: W
LayerCount: 2
Fore
SplineSet
85 522 m 257,0,-1
 254 522 l 257,1,-1
 254 512 l 257,2,3
 293 524 293 524 334 524 c 0,4,5
 421 524 421 524 488 472 c 128,-1,6
 555 420 555 420 579 337 c 1,7,-1
 582 6 l 257,8,-1
 415 6 l 257,9,-1
 415 336 l 257,10,11
 383 373 383 373 334 373 c 0,12,13
 286 373 286 373 254 338 c 1,14,-1
 254 6 l 257,15,-1
 85 6 l 257,16,-1
 85 522 l 257,0,-1
EndSplineSet
EndChar

StartChar: o
Encoding: 111 111 79
Width: 616
VWidth: 0
Flags: W
LayerCount: 2
Fore
SplineSet
344 3 m 260,0,1
 343 3 l 256,2,3
 341 3 341 3 339 3 c 256,4,5
 331 3 331 3 325 4 c 0,6,7
 224 11 224 11 154.5 84.5 c 128,-1,8
 85 158 85 158 85 260 c 0,9,10
 85 362 85 362 154.5 436.5 c 128,-1,11
 224 511 224 511 325 517 c 0,12,13
 331 517 331 517 339 518 c 0,14,15
 341 518 341 518 343 518 c 256,16,17
 344 518 l 256,18,19
 345 518 345 518 347 518 c 0,20,21
 454 518 454 518 529.5 442.5 c 128,-1,22
 605 367 605 367 605 260 c 128,-1,23
 605 153 605 153 529.5 78 c 128,-1,24
 454 3 454 3 347 3 c 0,25,26
 345 3 345 3 344 3 c 260,0,1
345 367 m 260,27,28
 332 367 332 367 321 364 c 1,29,-1
 321 365 l 257,30,31
 284 358 284 358 260 328.5 c 128,-1,32
 236 299 236 299 236 260 c 0,33,34
 236 222 236 222 260 193 c 128,-1,35
 284 164 284 164 321 156 c 1,36,-1
 321 157 l 257,37,38
 332 154 332 154 345 154 c 0,39,40
 357 154 357 154 369 157 c 1,41,-1
 369 156 l 257,42,43
 406 163 406 163 430 192.5 c 128,-1,44
 454 222 454 222 454 260 c 0,45,46
 454 299 454 299 430 328 c 128,-1,47
 406 357 406 357 369 365 c 1,48,-1
 369 364 l 257,49,50
 357 367 357 367 345 367 c 260,27,28
EndSplineSet
EndChar

StartChar: p
Encoding: 112 112 80
Width: 512
VWidth: 0
Flags: W
LayerCount: 2
Fore
SplineSet
237 -202 m 257,0,-1
 85 -202 l 257,1,-1
 85 509 l 257,2,-1
 237 509 l 258,3,4
 245 510 245 510 261 510 c 0,5,6
 368 510 368 510 443.5 435 c 128,-1,7
 519 360 519 360 519 253 c 128,-1,8
 519 146 519 146 443.5 70.5 c 128,-1,9
 368 -5 368 -5 261 -5 c 0,10,11
 245 -5 245 -5 237 -4 c 1,12,-1
 237 -202 l 257,0,-1
237 356 m 257,13,-1
 237 149 l 257,14,15
 249 146 249 146 261 146 c 256,16,17
 306 146 306 146 337 177 c 128,-1,18
 368 208 368 208 368 253 c 0,19,20
 368 297 368 297 337 328 c 128,-1,21
 306 359 306 359 261 359 c 0,22,23
 249 359 249 359 237 356 c 257,13,-1
EndSplineSet
EndChar

StartChar: q
Encoding: 113 113 81
Width: 512
VWidth: 0
Flags: W
LayerCount: 2
Fore
SplineSet
367 -202 m 257,0,-1
 367 -4 l 257,1,2
 359 -5 359 -5 343 -5 c 0,3,4
 236 -5 236 -5 160.5 70.5 c 128,-1,5
 85 146 85 146 85 253 c 128,-1,6
 85 360 85 360 160.5 435 c 128,-1,7
 236 510 236 510 343 510 c 0,8,9
 359 510 359 510 367 509 c 2,10,-1
 519 509 l 257,11,-1
 519 -202 l 257,12,-1
 367 -202 l 257,0,-1
367 356 m 257,13,14
 355 359 355 359 343 359 c 256,15,16
 298 359 298 359 267 328 c 128,-1,17
 236 297 236 297 236 253 c 0,18,19
 236 208 236 208 267 177 c 128,-1,20
 298 146 298 146 343 146 c 0,21,22
 355 146 355 146 367 149 c 257,23,-1
 367 356 l 257,13,14
EndSplineSet
EndChar

StartChar: r
Encoding: 114 114 82
Width: 587
VWidth: 0
Flags: W
LayerCount: 2
Fore
SplineSet
85 522 m 257,0,-1
 254 522 l 257,1,-1
 254 512 l 257,2,3
 293 524 293 524 334 524 c 0,4,5
 414 524 414 524 478.5 473 c 128,-1,6
 543 422 543 422 572 345 c 1,7,-1
 407 345 l 257,8,-1
 407 344 l 257,9,10
 376 373 376 373 334 373 c 0,11,12
 286 373 286 373 254 338 c 1,13,-1
 254 6 l 257,14,-1
 85 6 l 257,15,-1
 85 522 l 257,0,-1
EndSplineSet
EndChar

StartChar: s
Encoding: 115 115 83
Width: 508
VWidth: 0
Flags: W
LayerCount: 2
Fore
SplineSet
104 47 m 257,0,-1
 171 159 l 257,1,2
 178 152 178 152 193 147 c 0,3,4
 233 130 233 130 264.5 134 c 128,-1,5
 296 138 296 138 316 162 c 0,6,7
 339 189 339 189 294 201 c 0,8,9
 282 204 282 204 240 211 c 257,10,11
 174 237 174 237 134 271.5 c 128,-1,12
 94 306 94 306 86 348 c 128,-1,13
 78 390 78 390 116 434 c 0,14,15
 163 491 163 491 263 502.5 c 128,-1,16
 363 514 363 514 459 473 c 0,17,18
 477 465 477 465 481 462 c 1,19,-1
 414 332 l 257,20,21
 400 341 400 341 392 344 c 0,22,23
 352 360 352 360 331.5 356 c 128,-1,24
 311 352 311 352 291 328 c 0,25,26
 267 302 267 302 271 292.5 c 128,-1,27
 275 283 275 283 322 275 c 1,28,29
 362 258 362 258 390.5 243.5 c 128,-1,30
 419 229 419 229 445.5 209 c 128,-1,31
 472 189 472 189 483.5 169.5 c 128,-1,32
 495 150 495 150 492.5 125.5 c 128,-1,33
 490 101 490 101 468 75 c 0,34,35
 421 18 421 18 321 5.5 c 128,-1,36
 221 -7 221 -7 126 34 c 0,37,38
 118 36 118 36 104 47 c 257,0,-1
EndSplineSet
EndChar

StartChar: t
Encoding: 116 116 84
Width: 514
VWidth: 0
Flags: W
LayerCount: 2
Fore
SplineSet
499 6 m 257,0,1
 465 -3 465 -3 428 -3 c 0,2,3
 341 -3 341 -3 274 49 c 128,-1,4
 207 101 207 101 183 184 c 1,5,-1
 182 364 l 257,6,-1
 85 364 l 257,7,-1
 85 516 l 257,8,-1
 181 516 l 257,9,-1
 180 761 l 257,10,-1
 347 761 l 257,11,-1
 347 516 l 257,12,-1
 444 516 l 257,13,-1
 444 364 l 257,14,-1
 347 364 l 257,15,-1
 347 185 l 257,16,17
 379 148 379 148 428 148 c 0,18,19
 468 148 468 148 499 174 c 1,20,-1
 499 6 l 257,0,1
EndSplineSet
EndChar

StartChar: u
Encoding: 117 117 85
Width: 598
VWidth: 0
Flags: W
LayerCount: 2
Fore
SplineSet
583 8 m 257,0,-1
 414 8 l 257,1,-1
 414 18 l 257,2,3
 375 6 375 6 334 6 c 0,4,5
 247 6 247 6 180 58 c 128,-1,6
 113 110 113 110 89 193 c 1,7,-1
 86 524 l 257,8,-1
 253 524 l 257,9,-1
 253 194 l 257,10,11
 285 157 285 157 334 157 c 0,12,13
 382 157 382 157 414 192 c 1,14,-1
 414 524 l 257,15,-1
 583 524 l 257,16,-1
 583 8 l 257,0,-1
EndSplineSet
EndChar

StartChar: v
Encoding: 118 118 86
Width: 652
VWidth: 0
Flags: W
LayerCount: 2
Fore
SplineSet
85 511 m 257,0,-1
 237 511 l 257,1,-1
 361 144 l 257,2,-1
 485 511 l 257,3,-1
 637 511 l 257,4,-1
 437 0 l 257,5,-1
 285 0 l 257,6,-1
 85 511 l 257,0,-1
EndSplineSet
EndChar

StartChar: w
Encoding: 119 119 87
Width: 1044
VWidth: 0
Flags: W
LayerCount: 2
Fore
SplineSet
481 511 m 257,0,-1
 633 511 l 257,1,-1
 753 144 l 257,2,-1
 877 511 l 257,3,-1
 1029 511 l 257,4,-1
 829 0 l 257,5,-1
 681 0 l 257,6,-1
 557 317 l 257,7,-1
 433 0 l 257,8,-1
 285 0 l 257,9,-1
 85 511 l 257,10,-1
 233 511 l 257,11,-1
 357 144 l 257,12,-1
 481 511 l 257,0,-1
EndSplineSet
EndChar

StartChar: x
Encoding: 120 120 88
Width: 724
VWidth: 0
Flags: W
LayerCount: 2
Fore
SplineSet
85 513 m 257,0,-1
 271 511 l 257,1,-1
 400 360 l 257,2,-1
 533 512 l 257,3,-1
 708 511 l 257,4,-1
 488 258 l 257,5,-1
 709 0 l 257,6,-1
 534 -2 l 257,7,-1
 397 155 l 257,8,-1
 264 2 l 257,9,-1
 86 -1 l 257,10,-1
 310 256 l 257,11,-1
 85 513 l 257,0,-1
EndSplineSet
EndChar

StartChar: y
Encoding: 121 121 89
Width: 652
VWidth: 0
Flags: W
LayerCount: 2
Fore
SplineSet
85 511 m 257,0,-1
 256 511 l 257,1,-1
 380 144 l 257,2,-1
 485 511 l 257,3,-1
 670 514 l 257,4,-1
 391 -200 l 257,5,-1
 243 -204 l 257,6,-1
 312 0 l 257,7,-1
 85 511 l 257,0,-1
EndSplineSet
EndChar

StartChar: z
Encoding: 122 122 90
Width: 512
VWidth: 0
Flags: W
LayerCount: 2
Fore
SplineSet
85 10 m 257,0,-1
 85 162 l 257,1,-1
 328 366 l 257,2,-1
 85 366 l 257,3,-1
 85 518 l 257,4,-1
 538 518 l 257,5,-1
 538 366 l 257,6,-1
 336 162 l 257,7,-1
 538 162 l 257,8,-1
 538 10 l 257,9,-1
 85 10 l 257,0,-1
EndSplineSet
EndChar

StartChar: braceleft
Encoding: 123 123 91
Width: 419
VWidth: 0
Flags: W
LayerCount: 2
Fore
SplineSet
486 -85 m 1,0,1
 471 -92 471 -92 449 -92 c 0,2,3
 405 -92 405 -92 370.5 -50 c 128,-1,4
 336 -8 336 -8 324 58 c 1,5,-1
 323 228 l 1,6,-1
 214 358 l 1,7,-1
 323 485 l 1,8,-1
 324 655 l 1,9,10
 336 721 336 721 370.5 763 c 128,-1,11
 405 805 405 805 449 805 c 0,12,13
 471 805 471 805 486 798 c 1,14,-1
 486 663 l 1,15,16
 470 684 470 684 449 684 c 0,17,18
 425 684 425 684 408 654 c 1,19,-1
 409 470 l 1,20,-1
 327 369 l 1,21,-1
 408 228 l 1,22,-1
 408 58 l 1,23,24
 424 29 424 29 449 29 c 0,25,26
 470 29 470 29 486 50 c 1,27,-1
 486 -85 l 1,0,1
EndSplineSet
EndChar

StartChar: bar
Encoding: 124 124 92
Width: 252
VWidth: 0
Flags: W
LayerCount: 2
Fore
SplineSet
100 871 m 257,0,-1
 222 871 l 257,1,-1
 222 -99 l 257,2,-1
 100 -99 l 257,3,-1
 100 871 l 257,0,-1
EndSplineSet
EndChar

StartChar: braceright
Encoding: 125 125 93
Width: 419
VWidth: 0
Flags: W
LayerCount: 2
Fore
SplineSet
214 -85 m 1,0,-1
 214 50 l 1,1,2
 230 29 230 29 251 29 c 0,3,4
 276 29 276 29 292 58 c 1,5,-1
 292 228 l 1,6,-1
 373 369 l 1,7,-1
 291 470 l 1,8,-1
 292 654 l 1,9,10
 275 684 275 684 251 684 c 0,11,12
 230 684 230 684 214 663 c 1,13,-1
 214 798 l 1,14,15
 229 805 229 805 251 805 c 0,16,17
 295 805 295 805 329.5 763 c 128,-1,18
 364 721 364 721 376 655 c 1,19,-1
 377 485 l 1,20,-1
 486 358 l 1,21,-1
 377 228 l 1,22,-1
 376 58 l 1,23,24
 364 -8 364 -8 329.5 -50 c 128,-1,25
 295 -92 295 -92 251 -92 c 0,26,27
 229 -92 229 -92 214 -85 c 1,0,-1
EndSplineSet
EndChar

StartChar: asciitilde
Encoding: 126 126 94
Width: 644
VWidth: 0
Flags: W
LayerCount: 2
Fore
SplineSet
584 577 m 257,0,-1
 584 425 l 258,1,2
 583 421 583 421 567.5 403 c 128,-1,3
 552 385 552 385 520 364.5 c 128,-1,4
 488 344 488 344 456 344 c 2,5,-1
 356 344 l 2,6,7
 324 344 324 344 279.5 372 c 128,-1,8
 235 400 235 400 203 400 c 0,9,10
 180 400 180 400 150.5 386 c 128,-1,11
 121 372 121 372 103 358 c 2,12,-1
 85 344 l 1,13,-1
 85 496 l 257,14,15
 149 552 149 552 199 552 c 0,16,17
 232 552 232 552 279 524.5 c 128,-1,18
 326 497 326 497 359 497 c 0,19,20
 404 497 404 497 448 497 c 0,21,22
 479 497 479 497 513 517 c 128,-1,23
 547 537 547 537 565 557 c 2,24,-1
 584 577 l 257,0,-1
EndSplineSet
EndChar

StartChar: .notdef
Encoding: 0 0 95
Width: 512
VWidth: 1000
Flags: W
LayerCount: 2
Fore
SplineSet
512 800 m 2,0,1
 512 809 512 809 505.5 815.5 c 128,-1,2
 499 822 499 822 490 822 c 2,3,-1
 22 822 l 2,4,5
 13 822 13 822 6.5 815.5 c 128,-1,6
 0 809 0 809 0 800 c 2,7,-1
 -0 0 l 2,8,9
 0 -9 0 -9 6.5 -15.5 c 128,-1,10
 13 -22 13 -22 22 -22 c 2,11,-1
 490 -22 l 2,12,13
 499 -22 499 -22 505.5 -15.5 c 128,-1,14
 512 -9 512 -9 512 0 c 2,15,-1
 512 800 l 2,0,1
-5 800 m 2,16,17
 -5 811 -5 811 3 819 c 128,-1,18
 11 827 11 827 22 827 c 2,19,-1
 490 827 l 2,20,21
 501 827 501 827 509 819 c 128,-1,22
 517 811 517 811 517 800 c 2,23,-1
 517 -0 l 2,24,25
 517 -11 517 -11 509 -19 c 128,-1,26
 501 -27 501 -27 490 -27 c 2,27,-1
 22 -27 l 2,28,29
 11 -27 11 -27 3 -19 c 128,-1,30
 -5 -11 -5 -11 -5 0 c 2,31,-1
 -5 800 l 2,16,17
463 773 m 1,32,-1
 49 773 l 1,33,-1
 49 27 l 1,34,-1
 463 27 l 1,35,-1
 463 773 l 1,32,-1
468 775 m 2,36,-1
 468 25 l 2,37,38
 468 22 468 22 465 22 c 2,39,-1
 47 22 l 2,40,41
 44 22 44 22 44 25 c 2,42,-1
 44 775 l 2,43,44
 44 778 44 778 47 778 c 2,45,-1
 465 778 l 2,46,47
 468 778 468 778 468 775 c 2,36,-1
356 508 m 0,48,49
 356 504 356 504 353.5 485.5 c 128,-1,50
 351 467 351 467 343.5 444.5 c 128,-1,51
 336 422 336 422 326 422 c 2,52,-1
 246 422 l 2,53,54
 237 422 237 422 230.5 415.5 c 128,-1,55
 224 409 224 409 224 400 c 2,56,-1
 224 212 l 2,57,58
 224 203 224 203 230.5 196.5 c 128,-1,59
 237 190 237 190 246 190 c 128,-1,60
 255 190 255 190 261.5 196.5 c 128,-1,61
 268 203 268 203 268 212 c 2,62,-1
 268 375 l 2,63,64
 268 378 268 378 271 378 c 2,65,-1
 340 378 l 2,66,67
 368 378 368 378 384.5 428.5 c 128,-1,68
 401 479 401 479 401 508 c 0,69,70
 401 570 401 570 359 615 c 128,-1,71
 317 660 317 660 258 660 c 0,72,73
 229 660 229 660 189.5 644.5 c 128,-1,74
 150 629 150 629 150 604 c 2,75,-1
 150 570 l 2,76,77
 150 561 150 561 156.5 554.5 c 128,-1,78
 163 548 163 548 172 548 c 128,-1,79
 181 548 181 548 187.5 554.5 c 128,-1,80
 194 561 194 561 194 570 c 2,81,-1
 194 591 l 2,82,83
 194 601 194 601 220 608.5 c 128,-1,84
 246 616 246 616 258 616 c 0,85,86
 297 616 297 616 326.5 583 c 128,-1,87
 356 550 356 550 356 508 c 0,48,49
250 174 m 128,-1,89
 241 174 241 174 234.5 167.5 c 128,-1,90
 228 161 228 161 228 152 c 2,91,-1
 228 108 l 2,92,93
 228 99 228 99 234.5 92.5 c 128,-1,94
 241 86 241 86 250 86 c 128,-1,95
 259 86 259 86 265.5 92.5 c 128,-1,96
 272 99 272 99 272 108 c 2,97,-1
 272 152 l 2,98,99
 272 161 272 161 265.5 167.5 c 128,-1,88
 259 174 259 174 250 174 c 128,-1,89
250 81 m 128,-1,101
 239 81 239 81 231 89 c 128,-1,102
 223 97 223 97 223 108 c 2,103,-1
 223 152 l 2,104,105
 223 163 223 163 231 171 c 128,-1,106
 239 179 239 179 250 179 c 128,-1,107
 261 179 261 179 269 171 c 128,-1,108
 277 163 277 163 277 152 c 2,109,-1
 277 108 l 2,110,111
 277 97 277 97 269 89 c 128,-1,100
 261 81 261 81 250 81 c 128,-1,101
258 611 m 1,112,113
 230 611 230 611 199 590 c 1,114,-1
 199 570 l 2,115,116
 199 559 199 559 191 551 c 128,-1,117
 183 543 183 543 172 543 c 128,-1,118
 161 543 161 543 153 551 c 128,-1,119
 145 559 145 559 145 570 c 2,120,-1
 145 604 l 2,121,122
 145 631 145 631 185.5 648 c 128,-1,123
 226 665 226 665 258 665 c 0,124,125
 319 665 319 665 362.5 619 c 128,-1,126
 406 573 406 573 406 508 c 0,127,128
 406 477 406 477 388 425 c 128,-1,129
 370 373 370 373 340 373 c 2,130,-1
 273 373 l 1,131,-1
 273 212 l 2,132,133
 273 201 273 201 265 193 c 128,-1,134
 257 185 257 185 246 185 c 128,-1,135
 235 185 235 185 227 193 c 128,-1,136
 219 201 219 201 219 212 c 2,137,-1
 219 400 l 2,138,139
 219 411 219 411 227 419 c 128,-1,140
 235 427 235 427 246 427 c 2,141,-1
 325 427 l 1,142,143
 351 471 351 471 351 508 c 0,144,145
 351 531 351 531 343.5 548.5 c 128,-1,146
 336 566 336 566 319 578 c 128,-1,147
 302 590 302 590 291 596 c 128,-1,148
 280 602 280 602 258 611 c 1,112,113
EndSplineSet
EndChar

StartChar: at
Encoding: 64 64 96
Width: 864
VWidth: 0
Flags: W
LayerCount: 2
Fore
SplineSet
559 166 m 1025,0,-1
520 420 m 257,1,2
 516 421 516 421 508 421 c 0,3,4
 485 421 485 421 469.5 405.5 c 128,-1,5
 454 390 454 390 454 368 c 128,-1,6
 454 346 454 346 469.5 330 c 128,-1,7
 485 314 485 314 508 314 c 0,8,9
 512 314 512 314 520 316 c 1,10,-1
 520 420 l 257,1,2
596 236 m 1025,11,-1
522 228 m 1,12,-1
 508 239 l 1,13,14
 454 239 454 239 416 276.5 c 128,-1,15
 378 314 378 314 378 368 c 0,16,17
 378 421 378 421 416 456.5 c 128,-1,18
 454 492 454 492 508 492 c 2,19,-1
 520 492 l 1,20,-1
 596 492 l 1,21,-1
 603 318 l 2,22,23
 605 306 605 306 618.5 292 c 128,-1,24
 632 278 632 278 648.5 270.5 c 128,-1,25
 665 263 665 263 679.5 276 c 128,-1,26
 694 289 694 289 697 326 c 0,27,28
 697 327 697 327 695 334 c 128,-1,29
 693 341 693 341 693 342 c 0,30,31
 702 396 702 396 686 448.5 c 128,-1,32
 670 501 670 501 630 541 c 0,33,34
 562 608 562 608 466.5 606.5 c 128,-1,35
 371 605 371 605 303 537 c 0,36,37
 234 468 234 468 233 372.5 c 128,-1,38
 232 277 232 277 299 209 c 0,39,40
 351 157 351 157 423 146 c 128,-1,41
 495 135 495 135 559 166 c 0,42,43
 570 171 570 171 598 143 c 0,44,45
 626 114 626 114 649 84 c 2,46,-1
 672 54 l 1,47,48
 559 -22 559 -22 422 -10.5 c 128,-1,49
 285 1 285 1 188 98 c 0,50,51
 76 210 76 210 78.5 371 c 128,-1,52
 81 532 81 532 196 647 c 128,-1,53
 311 762 311 762 471.5 764.5 c 128,-1,54
 632 767 632 767 744 655 c 0,55,56
 828 571 828 571 849 448 c 128,-1,57
 870 325 870 325 822 220 c 1,58,59
 800 207 800 207 778 199 c 128,-1,60
 756 191 756 191 731.5 189.5 c 128,-1,61
 707 188 707 188 690 187.5 c 128,-1,62
 673 187 673 187 646 193.5 c 128,-1,63
 619 200 619 200 606.5 203 c 128,-1,64
 594 206 594 206 562.5 215.5 c 128,-1,65
 531 225 531 225 522 228 c 1,12,-1
EndSplineSet
EndChar

StartChar: uniE366
Encoding: 58214 58214 97
Width: 1024
Flags: W
LayerCount: 2
Fore
SplineSet
174 0 m 132,-1,1
 174 8 174 8 270 14 c 132,-1,2
 366 20 366 20 501 20 c 132,-1,3
 636 20 636 20 732 14 c 132,-1,4
 828 8 828 8 835 1 c 132,-1,5
 842 -6 842 -6 746 -12 c 132,-1,6
 650 -18 650 -18 515 -18 c 132,-1,7
 380 -18 380 -18 277 -13 c 132,-1,0
 174 -8 174 -8 174 0 c 132,-1,1
EndSplineSet
EndChar

StartChar: uniE367
Encoding: 58215 58215 98
Width: 1024
LayerCount: 2
Back
SplineSet
470.5 881.509765625 m 6
 470.5 883.580078125 472.180664062 885.259765625 474.25 885.259765625 c 4
 476.319335938 885.259765625 478 883.580078125 478 881.509765625 c 6
 478 270.64453125 l 5
 495.372070312 244.5859375 l 6
 495.66015625 244.155273438 495.860351562 243.661132812 495.94921875 243.129882812 c 6
 504.94921875 189.129882812 l 6
 504.982421875 188.928710938 505 188.720703125 505 188.509765625 c 4
 505 186.440429688 503.319335938 184.759765625 501.25 184.759765625 c 4
 499.391601562 184.759765625 497.846679688 186.115234375 497.55078125 187.889648438 c 6
 488.682617188 241.1015625 l 5
 471.127929688 267.43359375 l 6
 470.731445312 268.028320312 470.5 268.7421875 470.5 269.509765625 c 6
 470.5 881.509765625 l 6
37.75 176.450195312 m 1053
37.75 176.450195312 m 29
 897.25 176.450195312 l 29
 474.25 899.509765625 l 29
 37.75 176.450195312 l 29
EndSplineSet
Fore
SplineSet
57 84 m 128,-1,1
 57 92 57 92 159 98 c 128,-1,2
 261 104 261 104 405 104 c 128,-1,3
 549 104 549 104 764 103.5 c 128,-1,4
 979 103 979 103 979 95 c 128,-1,5
 979 87 979 87 764 75.5 c 128,-1,6
 549 64 549 64 405 64 c 128,-1,7
 261 64 261 64 159 70 c 128,-1,0
 57 76 57 76 57 84 c 128,-1,1
EndSplineSet
LCarets2: 5 0 0 0 0 0
EndChar

StartChar: uniE368
Encoding: 58216 58216 99
Width: 1024
Flags: W
LayerCount: 2
Fore
SplineSet
332 46 m 128,-1,1
 332 53 332 53 390 57 c 128,-1,2
 448 61 448 61 528.5 61.5 c 0,3,4
 608 61 608 61 666 57 c 128,-1,5
 724 53 724 53 724 46 c 128,-1,6
 724 39 724 39 666 35 c 128,-1,7
 608 31 608 31 527.5 30.5 c 0,8,9
 448 31 448 31 390 35 c 128,-1,0
 332 39 332 39 332 46 c 128,-1,1
EndSplineSet
EndChar

StartChar: uniE369
Encoding: 58217 58217 100
Width: 1090
Flags: W
LayerCount: 2
Fore
SplineSet
15.7001953125 650.599609375 m 2,0,1
 11.6181640625 650.599609375 11.6181640625 650.599609375 4.099609375 665.904296875 c 1,2,-1
 4.099609375 419.799804688 l 2,3,4
 4.099609375 415.828125 4.099609375 415.828125 7.1142578125 412.813476562 c 128,-1,5
 10.1279296875 409.799804688 10.1279296875 409.799804688 14.099609375 409.799804688 c 2,6,-1
 1076.5 409.799804688 l 2,7,8
 1080.47265625 409.799804688 1080.47265625 409.799804688 1083.48632812 412.813476562 c 128,-1,9
 1086.5 415.828125 1086.5 415.828125 1086.5 419.799804688 c 2,10,-1
 1086.5 660.53515625 l 1,11,12
 1082.6015625 650.845703125 1082.6015625 650.845703125 1078.21289062 650.599609375 c 2,13,-1
 740.3203125 650.599609375 l 2,14,15
 658.608398438 649.67578125 658.608398438 649.67578125 557.793945312 650.599609375 c 2,16,-1
 15.7001953125 650.599609375 l 2,0,1
546.900390625 749 m 0,17,18
 417.274414062 749 417.274414062 749 320.615234375 658.50390625 c 1,19,20
 471.666015625 655.53515625 471.666015625 655.53515625 562.024414062 654.599609375 c 2,21,-1
 736.997070312 654.599609375 l 2,22,23
 760.09375 654.823242188 760.09375 654.823242188 779.043945312 655.161132812 c 1,24,25
 734.034179688 698.69921875 734.034179688 698.69921875 674.329101562 723.849609375 c 128,-1,26
 614.624023438 749 614.624023438 749 546.900390625 749 c 0,17,18
546.900390625 753 m 0,27,28
 615.43359375 753 615.43359375 753 676.983398438 727.072265625 c 128,-1,29
 738.522460938 701.150390625 738.522460938 701.150390625 785.259765625 654.666992188 c 1,30,-1
 1077.99414062 654.599609375 l 2,31,32
 1081.27734375 655.948242188 1081.27734375 655.948242188 1086.58789062 673.188476562 c 0,33,34
 1087.0234375 674.599609375 1087.0234375 674.599609375 1088.5 674.599609375 c 0,35,36
 1090.5 674.599609375 1090.5 674.599609375 1090.5 672.599609375 c 2,37,-1
 1090.5 419.799804688 l 2,38,39
 1090.5 414.171875 1090.5 414.171875 1086.31445312 409.986328125 c 128,-1,40
 1082.12792969 405.799804688 1082.12792969 405.799804688 1076.5 405.799804688 c 2,41,-1
 889.698242188 405.799804688 l 1,42,43
 889.275390625 266.547851562 889.275390625 266.547851562 790.713867188 167.986328125 c 0,44,45
 691.727539062 69 691.727539062 69 551.700195312 69 c 128,-1,46
 411.671875 69 411.671875 69 312.686523438 167.986328125 c 0,47,48
 214.124023438 266.547851562 214.124023438 266.547851562 213.702148438 405.799804688 c 1,49,-1
 14.099609375 405.799804688 l 2,50,51
 8.47265625 405.799804688 8.47265625 405.799804688 4.2861328125 409.986328125 c 128,-1,52
 0.099609375 414.171875 0.099609375 414.171875 0.099609375 419.799804688 c 2,53,-1
 0.099609375 672.599609375 l 2,54,55
 0 673.095703125 0 673.095703125 0 673.506835938 c 0,56,57
 0 675.502929688 0 675.502929688 2.349609375 675.502929688 c 0,58,59
 3.9912109375 675.502929688 3.9912109375 675.502929688 5.4326171875 672.40234375 c 2,60,-1
 15.7001953125 654.599609375 l 1,61,-1
 315.6796875 654.599609375 l 1,62,63
 313.700195312 654.638671875 313.700195312 654.638671875 313.700195312 656.599609375 c 0,64,65
 313.700195312 657.452148438 313.700195312 657.452148438 314.31640625 658.04296875 c 0,66,67
 413.295898438 753 413.295898438 753 546.900390625 753 c 0,27,28
551.700195312 73 m 128,-1,69
 690.072265625 73 690.072265625 73 787.533203125 170.4609375 c 128,-1,70
 884.994140625 267.921875 884.994140625 267.921875 885.6953125 405 c 1,71,-1
 217.705078125 405 l 1,72,73
 218.40625 267.921875 218.40625 267.921875 315.8671875 170.4609375 c 128,-1,68
 413.328125 73 413.328125 73 551.700195312 73 c 128,-1,69
368.900390625 242.967773438 m 128,-1,75
 368.900390625 196.395507812 368.900390625 196.395507812 402.213867188 163.08203125 c 128,-1,76
 435.528320312 129.767578125 435.528320312 129.767578125 482.099609375 129.767578125 c 128,-1,77
 528.671875 129.767578125 528.671875 129.767578125 561.986328125 163.08203125 c 128,-1,78
 595.299804688 196.395507812 595.299804688 196.395507812 595.299804688 242.967773438 c 128,-1,79
 595.299804688 289.540039062 595.299804688 289.540039062 561.986328125 322.854492188 c 128,-1,80
 528.671875 356.16796875 528.671875 356.16796875 482.099609375 356.16796875 c 128,-1,81
 435.528320312 356.16796875 435.528320312 356.16796875 402.213867188 322.854492188 c 128,-1,74
 368.900390625 289.540039062 368.900390625 289.540039062 368.900390625 242.967773438 c 128,-1,75
364.900390625 242.967773438 m 128,-1,83
 364.900390625 291.196289062 364.900390625 291.196289062 399.385742188 325.681640625 c 128,-1,84
 433.872070312 360.16796875 433.872070312 360.16796875 482.099609375 360.16796875 c 128,-1,85
 530.328125 360.16796875 530.328125 360.16796875 564.814453125 325.681640625 c 128,-1,86
 599.299804688 291.196289062 599.299804688 291.196289062 599.299804688 242.967773438 c 128,-1,87
 599.299804688 194.740234375 599.299804688 194.740234375 564.814453125 160.25390625 c 128,-1,88
 530.328125 125.767578125 530.328125 125.767578125 482.099609375 125.767578125 c 128,-1,89
 433.872070312 125.767578125 433.872070312 125.767578125 399.385742188 160.25390625 c 128,-1,82
 364.900390625 194.740234375 364.900390625 194.740234375 364.900390625 242.967773438 c 128,-1,83
620.900390625 238.200195312 m 128,-1,91
 620.900390625 204.577148438 620.900390625 204.577148438 642.375 181.150390625 c 128,-1,92
 663.779296875 157.799804688 663.779296875 157.799804688 693.299804688 157.799804688 c 128,-1,93
 722.8203125 157.799804688 722.8203125 157.799804688 744.225585938 181.150390625 c 128,-1,94
 765.700195312 204.577148438 765.700195312 204.577148438 765.700195312 238.200195312 c 128,-1,95
 765.700195312 271.822265625 765.700195312 271.822265625 744.225585938 295.249023438 c 128,-1,96
 722.8203125 318.599609375 722.8203125 318.599609375 693.299804688 318.599609375 c 128,-1,97
 663.779296875 318.599609375 663.779296875 318.599609375 642.375 295.249023438 c 128,-1,90
 620.900390625 271.822265625 620.900390625 271.822265625 620.900390625 238.200195312 c 128,-1,91
616.900390625 238.200195312 m 128,-1,99
 616.900390625 273.376953125 616.900390625 273.376953125 639.42578125 297.951171875 c 128,-1,100
 662.020507812 322.599609375 662.020507812 322.599609375 693.299804688 322.599609375 c 128,-1,101
 724.579101562 322.599609375 724.579101562 322.599609375 747.174804688 297.951171875 c 128,-1,102
 769.700195312 273.376953125 769.700195312 273.376953125 769.700195312 238.200195312 c 128,-1,103
 769.700195312 203.022460938 769.700195312 203.022460938 747.174804688 178.44921875 c 128,-1,104
 724.579101562 153.799804688 724.579101562 153.799804688 693.299804688 153.799804688 c 128,-1,105
 662.020507812 153.799804688 662.020507812 153.799804688 639.42578125 178.44921875 c 128,-1,98
 616.900390625 203.022460938 616.900390625 203.022460938 616.900390625 238.200195312 c 128,-1,99
EndSplineSet
LCarets2: 3 0 0 0
EndChar

StartChar: uniE36A
Encoding: 58218 58218 101
Width: 1024
LayerCount: 2
Fore
SplineSet
271 -11 m 128,-1,1
 271 -3 271 -3 352 3 c 128,-1,2
 433 9 433 9 547 8.5 c 0,3,4
 661 9 661 9 742 3 c 128,-1,5
 823 -3 823 -3 823 -11 c 128,-1,6
 823 -19 823 -19 742 -25 c 128,-1,7
 661 -31 661 -31 547 -30.5 c 0,8,9
 433 -31 433 -31 352 -25 c 128,-1,0
 271 -19 271 -19 271 -11 c 128,-1,1
EndSplineSet
EndChar

StartChar: uniE36B
Encoding: 58219 58219 102
Width: 1024
LayerCount: 2
Fore
SplineSet
79 155 m 6,0,-1
 910 155 l 2,1,2
 925 155 925 155 925 140 c 2,3,-1
 925 128 l 2,4,5
 925 113 925 113 910 113 c 2,6,-1
 79 113 l 2,7,8
 64 113 64 113 64 128 c 2,9,-1
 64 140 l 2,10,11
 64 155 64 155 79 155 c 6,0,-1
EndSplineSet
EndChar

StartChar: uniE36C
Encoding: 58220 58220 103
Width: 1024
LayerCount: 2
Fore
SplineSet
228 -195 m 132,-1,1
 228 -184 228 -184 309 -176 c 132,-1,2
 390 -168 390 -168 504 -168 c 132,-1,3
 618 -168 618 -168 699 -176 c 132,-1,4
 780 -184 780 -184 780 -195 c 132,-1,5
 780 -206 780 -206 699 -214 c 132,-1,6
 618 -222 618 -222 504 -222 c 132,-1,7
 390 -222 390 -222 309 -214 c 132,-1,0
 228 -206 228 -206 228 -195 c 132,-1,1
502 41 m 1025,8,-1
EndSplineSet
EndChar

StartChar: uniE36D
Encoding: 58221 58221 104
Width: 1024
Flags: W
LayerCount: 2
Fore
SplineSet
173 82 m 128,-1,1
 173 100 173 100 261 112 c 128,-1,2
 349 124 349 124 473 124 c 128,-1,3
 597 124 597 124 685 112 c 128,-1,4
 773 100 773 100 773 82.5 c 0,5,6
 773 64 773 64 685 52 c 128,-1,7
 597 40 597 40 473 40 c 128,-1,8
 349 40 349 40 261 52 c 128,-1,0
 173 64 173 64 173 82 c 128,-1,1
EndSplineSet
EndChar

StartChar: uniE36E
Encoding: 58222 58222 105
Width: 1024
Flags: W
LayerCount: 2
Fore
SplineSet
453.745117188 814.7890625 m 5,0,1
 454 815 454 815 455.881835938 816.196289062 c 6,275,276
 457.799804688 817.6640625 l 5,274,-1
 451.727539062 818.791992188 l 6,273,-1
 445.812360781 819.890742737 445.812360781 819.890742737 418.598632812 804.044921875 c 4,271,272
 394 790 394 790 385.365234375 784.815429688 c 4,269,270
 369 776 369 776 336.30078125 753.989257812 c 4,267,268
 303 732 303 732 292.935546875 723.836914062 c 4,265,266
 254 693 254 693 228.313476562 638.709960938 c 4,263,264
 218 618 218 618 215.979492188 603.606445312 c 4,261,262
 214 590 214 590 212.033203125 587.509765625 c 4,259,260
 211 587 211 587 209.021484375 568.711914062 c 4,257,258
 206.44921875 535.478515625 l 6,256,-1
 196 521 l 5,255,-1
 205 508 205 508 203.413085938 466.772460938 c 4,253,254
 203 453 203 453 202.686523438 451.610351562 c 4,251,252
 201 445 201 445 204.915039062 428.508789062 c 4,249,250
 206 423 206 423 207.047851562 394.237304688 c 4,247,248
 208 365 208 365 203.724609375 348.541992188 c 4,245,246
 199 332 199 332 198.220703125 326.732421875 c 4,243,244
 197 322 197 322 190.163085938 292.459960938 c 4,241,242
 175 231 175 231 173.1796875 211.454101562 c 4,239,240
 172 203 172 203 171.140625 200.030273438 c 4,237,238
 167 189 167 189 167.271484375 140.833984375 c 4,235,236
 167 72 167 72 172.555664062 44.2490234375 c 4,233,234
 174 37 174 37 175.580078125 29.91796875 c 132,-1,232
 177 23 177 23 178.48828125 19.5322265625 c 132,-1,231
 180 16 180 16 185.892578125 -3.5234375 c 4,229,230
 196 -39 196 -39 212.459960938 -62.3046875 c 4,227,228
 283.014648438 -136.810546875 l 4,226,-1
 300 -147 300 -147 311.62890625 -153.1796875 c 4,224,225
 351 -174 351 -174 396.7890625 -175.727539062 c 4,222,223
 413 -176 413 -176 453.287109375 -164.63671875 c 4,220,221
 493 -153 493 -153 528.891601562 -137.311523438 c 4,218,219
 536 -134 536 -134 536.887695312 -134.37890625 c 4,216,217
 538 -134 538 -134 562.228515625 -122.955078125 c 4,214,215
 587 -111 587 -111 587.256835938 -111.53125 c 4,212,213
 588 -112 588 -112 609.482421875 -99.1103515625 c 4,210,211
 659 -70 659 -70 693.883789062 -21.451171875 c 4,208,209
 729 28 729 28 737.455078125 79.3525390625 c 28,206,207
 750 152 750 152 727.931640625 430.112304688 c 4,204,205
 727 442 727 442 722.786132812 461.846679688 c 4,202,203
 719 482 719 482 717.974609375 485.62890625 c 4,200,201
 699 552 699 552 688.278320312 577.8515625 c 4,198,199
 672 617 672 617 654.669921875 641.41015625 c 4,196,197
 643 657 643 657 627.13671875 675.692382812 c 4,194,195
 626 677 626 677 618.206054688 688.663085938 c 4,192,193
 611 701 611 701 600.497070312 711.407226562 c 4,190,191
 584 729 584 729 576.0234375 738.6171875 c 4,188,189
 571 744 571 744 562.540039062 749.833007812 c 4,186,187
 554 756 554 756 551.01171875 759.1796875 c 4,184,185
 548 763 548 763 544.98828125 766.138671875 c 4,182,183
 542 770 542 770 544.469726562 771.434570312 c 4,180,181
 545 772 545 772 540.626953125 773.3046875 c 4,178,179
 534 775 534 775 533.875976562 775.069335938 c 4,176,177
 532 776 532 776 524.42578125 781.716796875 c 4,174,175
 508 794 508 794 498.56640625 802.798828125 c 4,172,173
 482 819 482 819 478.2109375 819 c 4,170,171
 474 819 474 819 493.165039062 800.618164062 c 4,168,169
 512 782 512 782 524.529296875 773.236328125 c 4,166,167
 557 750 557 750 585.807617188 719.19140625 c 4,164,165
 615 688 615 688 626.578125 665.295898438 c 4,162,163
 650 620 650 620 665.819335938 525.923828125 c 4,160,161
 674 477 674 477 666.09375 454.680664062 c 4,158,159
 657 429 657 429 626.9296875 406.302734375 c 4,156,157
 597 383 597 383 577.109375 376.342773438 c 4,154,155
 573 375 573 375 527.021484375 358.911132812 c 6,152,153
 520.063476562 356.538085938 l 5,151,-1
 521 356 521 356 532.21484375 357.866210938 c 4,149,150
 549 361 549 361 560.1796875 363.15234375 c 4,147,148
 571 365 571 365 578.595703125 365.684570312 c 4,145,146
 586 366 586 366 588.920898438 365.657226562 c 4,143,144
 592 365 592 365 592.034179688 363.081054688 c 4,141,142
 592 360 592 360 594.111328125 359.965820312 c 4,139,140
 596 360 596 360 596.188476562 362.977539062 c 4,137,138
 596 366 596 366 606.989257812 362.829101562 c 4,135,136
 644 352 644 352 661.401367188 308.038085938 c 4,133,134
 665 299 665 299 666.08203125 273.55859375 c 6,131,132
 667.016601562 248.426757812 l 5,130,-1
 660.681640625 245.7265625 l 6,129,-1
 654.082147476 242.913613748 654.082147476 242.913613748 656.838867188 240.014648438 c 4,127,128
 659 237 659 237 663.797851562 237.9375 c 4,125,126
 667 239 667 239 667.821289062 235.936523438 c 4,123,124
 669 233 669 233 669.58984375 218.931640625 c 4,121,122
 673 137 673 137 660.48046875 97.837890625 c 4,119,120
 656 84 656 84 652.997070312 84.44140625 c 132,-1,118
 650 85 650 85 648.634765625 82.15625 c 4,116,117
 648 80 648 80 651.0234375 79.5595703125 c 132,-1,115
 654 79 654 79 648.833007812 64.6044921875 c 4,113,114
 646 58 646 58 643.041992188 52.578125 c 4,111,112
 638 43 638 43 637.73046875 47.98828125 c 4,109,110
 637 52 637 52 635.653320312 50.48046875 c 4,107,108
 632 46 632 46 636.068359375 43.8115234375 c 4,105,106
 638 43 638 43 633.436523438 35.84375 c 4,103,104
 629 28 629 28 622.02734375 18.8701171875 c 4,101,102
 615 9 615 9 608.858398438 3.3310546875 c 4,99,100
 600 -6 600 -6 587.049804688 -14.54296875 c 4,97,98
 576 -22 576 -22 554 -35.58203125 c 132,-1,96
 532 -49 532 -49 514.665039062 -58.751953125 c 4,94,95
 497 -69 497 -69 496.798828125 -67.705078125 c 4,92,93
 496 -65 496 -65 492.778320312 -65.8330078125 c 4,90,91
 490 -67 490 -67 491.1484375 -69.3671875 c 4,88,89
 492 -72 492 -72 485.458007812 -75.93359375 c 132,-1,87
 479 -80 479 -80 458.166992188 -91.3837890625 c 4,85,86
 424 -110 424 -110 421.298828125 -109.291015625 c 4,83,84
 413 -108 413 -108 413.405273438 -111.947265625 c 4,81,82
 413 -115 413 -115 400.52734375 -119.806640625 c 4,79,80
 377 -129 377 -129 341.06640625 -121.081054688 c 132,-1,78
 305 -113 305 -113 271.541015625 -91.458984375 c 4,76,77
 257 -82 257 -82 238.458984375 -63.50390625 c 132,-1,75
 220 -45 220 -45 210.919921875 -30.9404296875 c 4,73,74
 190 2 190 2 181.068359375 34.734375 c 4,71,72
 172 67 172 67 172.46484375 114.870117188 c 4,69,70
 173 158 173 158 179.499023438 207.299804688 c 4,67,68
 180 211 180 211 183.680664062 230.1484375 c 4,65,66
 187 249 187 249 194.481445312 280.724609375 c 4,63,64
 202 313 202 313 209.08203125 320.500976562 c 4,61,62
 220 332 220 332 237.190429688 337.064453125 c 4,59,60
 255 342 255 342 311.420898438 349.490234375 c 4,57,58
 323 351 323 351 330.912109375 352.216796875 c 4,55,56
 354 356 354 356 336.345703125 355.811523438 c 4,53,54
 327 356 327 356 296.05078125 357.888671875 c 4,51,52
 265 360 265 360 252.016601562 366.247070312 c 4,49,50
 231 377 231 377 219.41796875 398.806640625 c 4,47,48
 216 405 216 405 216.297851562 405.984375 c 4,45,46
 216 407 216 407 219.40625 406.978515625 c 132,-1,44
 223 407 223 407 223.814453125 409.192382812 c 4,42,43
 224 411 224 411 222.91796875 412.298828125 c 4,40,41
 221 414 221 414 219.215820312 413.581054688 c 4,38,39
 217 414 217 414 216.016601562 411.892578125 c 4,36,37
 214 409 214 409 212.86328125 413.03515625 c 4,34,35
 212 417 212 417 209.64453125 421.862304688 c 4,32,33
 207 429 207 429 207.774414062 434.532226562 c 4,30,31
 211 457 211 457 219 477 c 5,28,29
 212 490 l 5,27,-1
 211 497 l 5,26,-1
 210 518 210 518 209.772460938 538.594726562 c 4,24,25
 209 565 209 565 226.580078125 612.954101562 c 4,22,23
 231 627 231 627 233.50390625 632.311523438 c 4,20,21
 237 641 237 641 238.452148438 636.6328125 c 4,18,19
 240 633 240 633 241.215820312 634.139648438 c 4,16,17
 244 637 244 637 240.384765625 641.012695312 c 4,14,15
 238 642 238 642 242.170898438 650.002929688 c 4,12,13
 246 658 246 658 253.244140625 669.82421875 c 4,10,11
 261 681 261 681 268.223632812 690.84375 c 4,8,9
 286 713 286 713 303.104492188 725.912109375 c 4,6,7
 320 739 320 739 369.787109375 767.54296875 c 4,4,5
 398 784 398 784 431.060546875 802.01171875 c 4,2,3
 453.745117188 814.7890625 l 5,0,1
389.625976562 166.173828125 m 6,279,-1
 391.803710938 174.482421875 l 5,280,281
 392.635742188 173.650390625 392.635742188 173.650390625 401.877929688 131.279296875 c 132,-1,282
 411.115234375 88.927734375 411.115234375 88.927734375 413.405273438 80.91015625 c 4,283,284
 415.05859375 75.1220703125 415.05859375 75.1220703125 414.05078125 72.3828125 c 132,-1,285
 413.04296875 69.642578125 413.04296875 69.642578125 406.106445312 61.07421875 c 4,286,287
 373.315429688 20.56640625 373.315429688 20.56640625 363.478515625 1.0458984375 c 4,288,289
 333.646484375 -58.150390625 333.646484375 -58.150390625 366.153320312 -92.21484375 c 4,290,291
 370.916015625 -98.7958984375 370.916015625 -98.7958984375 368.333007812 -99.0693359375 c 4,292,293
 355.909179688 -99.0693359375 355.909179688 -99.0693359375 329.573242188 -78.583984375 c 132,-1,294
 303.23828125 -58.0986328125 303.23828125 -58.0986328125 296.236328125 -42.98828125 c 4,295,296
 285.458007812 -19.7236328125 285.458007812 -19.7236328125 296.701171875 13.5087890625 c 4,297,298
 308.9296875 49.6513671875 308.9296875 49.6513671875 347.599609375 90.9833984375 c 4,299,300
 360.133789062 104.380859375 360.133789062 104.380859375 373.975585938 129.145507812 c 132,-1,301
 387.817382812 153.911132812 387.817382812 153.911132812 389.625976562 166.173828125 c 6,279,-1
EndSplineSet
EndChar

StartChar: uniE36F
Encoding: 58223 58223 106
Width: 810
Flags: W
LayerCount: 2
Fore
SplineSet
228 -50 m 128,-1,1
 228 -34 228 -34 278 -24 c 128,-1,2
 328 -14 328 -14 399 -14 c 128,-1,3
 470 -14 470 -14 520 -24 c 128,-1,4
 570 -34 570 -34 570 -49.5 c 0,5,6
 570 -66 570 -66 520 -76 c 128,-1,7
 470 -86 470 -86 399 -86 c 128,-1,8
 328 -86 328 -86 278 -76 c 128,-1,0
 228 -66 228 -66 228 -50 c 128,-1,1
EndSplineSet
EndChar

StartChar: uniE370
Encoding: 58224 58224 107
Width: 1024
Flags: WO
LayerCount: 2
Fore
SplineSet
422 245 m 2,0,1
 421 245 421 245 419 244 c 128,-1,2
 417 243 417 243 416 243 c 0,3,4
 407 244 407 244 405 240 c 0,5,6
 403.414628393 237.422308089 403.414628393 237.422308089 405.369683096 235.141688749 c 0,7,8
 412.349123549 227 412.349123549 227 435 227 c 0,9,10
 448 227 448 227 448 234 c 128,-1,11
 448 241 448 241 425 245 c 1,12,-1
 422 245 l 2,0,1
438 267 m 0,13,14
 436 267 436 267 433.523100785 267.10264351 c 0,15,16
 431 267 431 267 428.5 267 c 128,-1,17
 426 267 426 267 424.5 266 c 128,-1,18
 423 265 423 265 422.5 263 c 128,-1,19
 422 261 422 261 422 257 c 0,20,21
 422 256 422 256 427 255.5 c 128,-1,22
 432 255 432 255 436.5 255.5 c 128,-1,23
 441 256 441 256 441 257 c 2,24,-1
 441 259 l 2,25,26
 441 260.009361567 441 260.009361567 441.577668418 261.425126684 c 2,27,-1
 442 263 l 2,28,29
 442 265 442 265 438 267 c 0,13,14
400 282 m 1,30,31
 391 282 391 282 391 269 c 0,32,33
 391 262 391 262 402 262 c 128,-1,34
 413 262 413 262 413 268 c 0,35,36
 413 269 413 269 413.5 270.5 c 128,-1,37
 414 272 414 272 414 273 c 0,38,39
 414 277 414 277 400 282 c 1,30,31
439 291 m 1,40,41
 422 291 l 1,42,43
 414.542747921 286.930288024 414.542747921 286.930288024 422.752949705 281.260259478 c 0,44,45
 436.161806166 272 436.161806166 272 448 272 c 0,46,47
 450 272 450 272 453.5 274 c 128,-1,48
 457 276 457 276 457 277 c 0,49,50
 457 285 457 285 439 291 c 1,40,41
428.375976562 387.3671875 m 0,51,52
 426.842800447 386.562950443 426.842800447 386.562950443 425.388431357 384.830331579 c 128,-1,53
 423.934062268 383.097712716 423.934062268 383.097712716 423.103240812 381.788602452 c 128,-1,54
 422.272419357 380.479492188 422.272419357 380.479492188 422.095703125 380.479492188 c 0,55,56
 420.646703878 380.479492188 420.646703878 380.479492188 419.921875 376.548828125 c 0,57,58
 419.345121418 373.421159447 419.345121418 373.421159447 423.012189634 370.399544567 c 128,-1,59
 426.67925785 367.377929688 426.67925785 367.377929688 429.985351562 367.377929688 c 0,60,61
 433.004342368 367.377929688 433.004342368 367.377929688 439.784997106 371.234353914 c 128,-1,62
 446.565651844 375.090778141 446.565651844 375.090778141 447.837890625 377.53125 c 0,63,64
 451.2013971 383.98329581 451.2013971 383.98329581 442.665455608 387.18426859 c 128,-1,65
 434.129514115 390.38524137 434.129514115 390.38524137 428.375976562 387.3671875 c 0,51,52
257.40234375 367.609375 m 1,66,-1
 253.860351562 367.939453125 l 1,67,-1
 252.28128881 366.688184695 l 1,68,-1
 259.012695312 364.526367188 l 1,69,70
 259.012695312 366.538450027 259.012695312 366.538450027 266 366 c 0,71,72
 271.226238793 365.59725981 271.226238793 365.59725981 273.836908846 366.185800838 c 0,73,74
 277.117722676 366.925416915 277.117722676 366.925416915 275.789655665 368.929202486 c 0,75,76
 274.134349462 371.426726076 274.134349462 371.426726076 268.678426117 373.03157588 c 0,77,78
 256.944623645 376.483052269 256.944623645 376.483052269 257.40234375 367.609375 c 1,66,-1
294 423 m 0,79,80
 289.488065294 421.309499946 289.488065294 421.309499946 289.489001367 419.920367595 c 0,81,82
 289.49096927 417 289.49096927 417 306 417 c 0,83,84
 318 417 318 417 318 424 c 0,85,86
 318 428 318 428 306 428 c 0,87,88
 305 428 305 428 303 427 c 128,-1,89
 301 426 301 426 298.5 425 c 128,-1,90
 296 424 296 424 294 423 c 0,79,80
472.065429688 540.447265625 m 0,91,92
 472.065429688 531.978307587 472.065429688 531.978307587 469.279296875 527.00390625 c 0,93,94
 469.127913354 526.733595729 469.127913354 526.733595729 467.845206677 525.910943774 c 128,-1,95
 466.5625 525.088291819 466.5625 525.088291819 466.5625 523.94921875 c 0,96,97
 466.5625 520.586794784 466.5625 520.586794784 459.822917374 516.222596611 c 128,-1,98
 453.083334747 511.858398438 453.083334747 511.858398438 446.294921875 511.858398438 c 0,99,100
 437.517013564 511.858398438 437.517013564 511.858398438 416.705284126 520.326017738 c 128,-1,101
 395.893554688 528.793637038 395.893554688 528.793637038 395.893554688 537.38671875 c 1024,102,103
260 334 m 128,-1,105
 260 343 260 343 282 343 c 128,-1,106
 304 343 304 343 304 334 c 128,-1,107
 304 325 304 325 282 325 c 128,-1,104
 260 325 260 325 260 334 c 128,-1,105
290 356 m 128,-1,109
 290 363 290 363 303 363 c 0,110,111
 317 363 317 363 317 356 c 128,-1,112
 317 349 317 349 303 349 c 0,113,108
 290 349 290 349 290 356 c 128,-1,109
243 349 m 0,114,115
 243 357 243 357 247 357 c 128,-1,116
 251 357 251 357 251 349 c 0,117,118
 251 342 251 342 247 342 c 128,-1,119
 243 342 243 342 243 349 c 0,114,115
384 480 m 128,-1,121
 384 489 384 489 391 489 c 0,122,123
 399 489 399 489 399 480 c 128,-1,124
 399 471 399 471 391 471 c 0,125,120
 384 471 384 471 384 480 c 128,-1,121
394 449 m 128,-1,127
 394 455 394 455 399 455 c 0,128,129
 405 455 405 455 405 449 c 128,-1,130
 405 443 405 443 399 443 c 0,131,126
 394 443 394 443 394 449 c 128,-1,127
555 514 m 0,132,133
 555 524 555 524 576 524 c 128,-1,134
 597 524 597 524 597 514 c 0,135,136
 597 505 597 505 576 505 c 128,-1,137
 555 505 555 505 555 514 c 0,132,133
572 540 m 0,138,139
 572 546 572 546 584 546 c 128,-1,140
 596 546 596 546 596 540 c 0,141,142
 596 535 596 535 584 535 c 128,-1,143
 572 535 572 535 572 540 c 0,138,139
600 512 m 0,144,145
 600 525 600 525 605 525 c 128,-1,146
 610 525 610 525 610 512 c 0,147,148
 610 500 610 500 605 500 c 128,-1,149
 600 500 600 500 600 512 c 0,144,145
546 490 m 0,150,151
 546 498 546 498 560 498 c 0,152,153
 575 498 575 498 575 490 c 0,154,155
 575 481 575 481 560 481 c 0,156,157
 546 481 546 481 546 490 c 0,150,151
407 536 m 128,-1,159
 407 541 407 541 415 541 c 128,-1,160
 423 541 423 541 423 536 c 128,-1,161
 423 531 423 531 415 531 c 128,-1,158
 407 531 407 531 407 536 c 128,-1,159
435 533 m 0,162,163
 435 537 435 537 440 537 c 128,-1,164
 445 537 445 537 445 533 c 0,165,166
 445 528 445 528 440 528 c 128,-1,167
 435 528 435 528 435 533 c 0,162,163
451 529 m 128,-1,169
 451 535 451 535 459 535 c 128,-1,170
 467 535 467 535 467 529 c 128,-1,171
 467 523 467 523 459 523 c 128,-1,168
 451 523 451 523 451 529 c 128,-1,169
434 514 m 128,-1,173
 434 519 434 519 444 519 c 128,-1,174
 454 519 454 519 454 514 c 128,-1,175
 454 509 454 509 444 509 c 128,-1,172
 434 509 434 509 434 514 c 128,-1,173
454 541 m 0,176,177
 454 545 454 545 462 545 c 128,-1,178
 470 545 470 545 470 541 c 0,179,180
 470 536 470 536 462 536 c 128,-1,181
 454 536 454 536 454 541 c 0,176,177
329 585 m 0,182,183
 329 596 329 596 337 596 c 0,184,185
 344 596 344 596 344 585 c 0,186,187
 344 575 344 575 337 575 c 0,188,189
 329 575 329 575 329 585 c 0,182,183
374 581 m 0,190,191
 374 575 374 575 365 575 c 1024,192,193
352 604 m 128,-1,195
 352 611 352 611 363 611 c 0,196,197
 373 611 373 611 373 604 c 128,-1,198
 373 597 373 597 363 597 c 0,199,194
 352 597 352 597 352 604 c 128,-1,195
457 670 m 0,200,201
 457 664 457 664 463 664 c 0,202,203
 468 664 468 664 468 670 c 0,204,205
 468 677 468 677 463 677 c 0,206,207
 457 677 457 677 457 670 c 0,200,201
453 653 m 128,-1,209
 453 650 453 650 460 650 c 128,-1,210
 467 650 467 650 467 653 c 128,-1,211
 467 656 467 656 460 656 c 128,-1,208
 453 656 453 656 453 653 c 128,-1,209
473 658 m 128,-1,213
 473 654 473 654 478 654 c 128,-1,214
 483 654 483 654 483 658 c 128,-1,215
 483 662 483 662 478 662 c 128,-1,212
 473 662 473 662 473 658 c 128,-1,213
620 403 m 128,-1,217
 620 408 620 408 628 408 c 128,-1,218
 636 408 636 408 636 403 c 128,-1,219
 636 398 636 398 628 398 c 128,-1,216
 620 398 620 398 620 403 c 128,-1,217
610 385 m 0,220,221
 610 391 610 391 618 391 c 128,-1,222
 626 391 626 391 626 385 c 0,223,224
 626 378 626 378 618 378 c 128,-1,225
 610 378 610 378 610 385 c 0,220,221
596 383 m 0,226,227
 596 388 596 388 599 388 c 128,-1,228
 602 388 602 388 602 383 c 0,229,230
 602 377 602 377 599 377 c 128,-1,231
 596 377 596 377 596 383 c 0,226,227
603 400 m 128,-1,233
 603 404 603 404 609 404 c 0,234,235
 616 404 616 404 616 400 c 128,-1,236
 616 396 616 396 609 396 c 0,237,232
 603 396 603 396 603 400 c 128,-1,233
590 368 m 128,-1,239
 590 371 590 371 601 371 c 0,240,241
 613 371 613 371 613 368 c 128,-1,242
 613 365 613 365 601 365 c 0,243,238
 590 365 590 365 590 368 c 128,-1,239
569 655 m 128,-1,245
 569 658 569 658 572 658 c 0,246,247
 576 658 576 658 576 655 c 128,-1,248
 576 652 576 652 572 652 c 0,249,244
 569 652 569 652 569 655 c 128,-1,245
585 653 m 128,-1,251
 585 658 585 658 592 658 c 0,252,253
 598 658 598 658 598 653 c 128,-1,254
 598 648 598 648 592 648 c 0,255,250
 585 648 585 648 585 653 c 128,-1,251
EndSplineSet
EndChar
